<?xml version="1.0" encoding="utf-8"?>
<!-- Generator: Adobe Illustrator 21.1.0, SVG Export Plug-In . SVG Version: 6.00 Build 0)  -->
<svg version="1.1" id="Layer_1" xmlns="http://www.w3.org/2000/svg" xmlns:xlink="http://www.w3.org/1999/xlink" x="0px" y="0px"
	 viewBox="0 0 1000 1000" style="enable-background:new 0 0 1000 1000;" xml:space="preserve">
<style type="text/css">
	.st0{fill:#FFFFFF;stroke:#010101;stroke-width:2;stroke-linejoin:bevel;stroke-miterlimit:10;}
	.st1{fill:none;stroke:#010101;stroke-width:2;stroke-miterlimit:10;}
	.st2{fill:#FFFFFF;stroke:#010101;stroke-width:2;stroke-miterlimit:10;}
	.st3{stroke:#010101;stroke-width:2;stroke-linejoin:bevel;stroke-miterlimit:10;}
</style>
<g>
	<rect x="598.4" y="546.2" class="st0" width="19.5" height="25.2"/>
	<rect x="598.4" y="446.2" class="st0" width="19.5" height="25.2"/>
	<polygon class="st1" points="677.9,212.9 677.9,840.4 639.2,840.4 639.2,253.3 358.3,253.3 358.3,840.4 319.6,840.4 319.6,212.9 	
		"/>
	<g>
		<polygon class="st2" points="754.6,859.9 292.1,859.9 272.1,824.6 725.4,824.6 		"/>
		<rect x="292.1" y="859.9" class="st2" width="462.4" height="50.9"/>
	</g>
	<polygon class="st2" points="725.4,164.1 725.4,824.6 676.5,824.6 676.5,214.1 321,214.1 321,824.6 272.1,824.6 272.1,164.1 	"/>
	<polygon class="st0" points="617.9,596.5 598.4,596.6 598.4,571.3 617.9,571.3 	"/>
	<rect x="357.8" y="364.1" class="st1" width="5.2" height="64.7"/>
	<rect x="357.8" y="620.3" class="st1" width="5.2" height="62.1"/>
	<g>
		<polygon class="st1" points="785.7,946 312.6,946 292.2,910.8 755.8,910.8 		"/>
		<rect x="312.6" y="946" class="st1" width="473.1" height="50.9"/>
	</g>
	<line class="st1" x1="272.1" y1="824.6" x2="272.1" y2="997.9"/>
	<rect x="602.4" y="446.8" class="st0" width="19.5" height="124.5"/>
	<polygon class="st3" points="612.7,590.9 603.8,591 603.8,576.9 612.7,576.9 	"/>
</g>
<rect x="3.9" y="54.1" class="st2" width="38" height="941.9"/>
<rect x="41.9" y="78.1" class="st2" width="192.3" height="62"/>
<g>
	<path d="M67.5,118.9c-1-1-1.6-2.4-1.7-4.1l3.1-0.9c0.2,1.3,0.5,2.3,0.9,2.9c0.4,0.6,1,0.9,1.8,0.9c0.7,0,1.2-0.2,1.6-0.6
		c0.4-0.4,0.6-0.9,0.6-1.6c0-1-0.5-2-1.6-3l-3.5-3c-0.8-0.7-1.4-1.4-1.8-2.1c-0.4-0.7-0.6-1.6-0.6-2.7c0-1.6,0.5-2.9,1.4-3.7
		c0.9-0.9,2.2-1.3,3.8-1.3c1.5,0,2.7,0.5,3.6,1.5s1.4,2.3,1.5,3.8l-2.5,0.9c-0.2-1.1-0.4-2-0.8-2.6c-0.4-0.6-0.9-0.9-1.7-0.9
		c-0.6,0-1.1,0.2-1.5,0.6c-0.4,0.4-0.5,0.9-0.5,1.5c0,0.8,0.3,1.4,1,2l3.6,3.3c0.9,0.8,1.6,1.6,2.1,2.5c0.5,0.8,0.8,1.8,0.8,3
		c0,1.7-0.5,3-1.5,3.9c-1,0.9-2.4,1.3-4.1,1.3C69.8,120.4,68.5,119.9,67.5,118.9z"/>
	<path d="M81.9,119.2c-0.7-0.8-1-2-1-3.6v-13.2h-2.1v-2.5h2.1V94h3.7v5.9h3.3v2.5h-3.3v13c0,0.8,0.1,1.4,0.4,1.7
		c0.3,0.3,0.7,0.5,1.5,0.5c0.5,0,0.9,0,1.4-0.1v2.8c-0.9,0.1-1.8,0.2-2.6,0.2C83.7,120.4,82.6,120,81.9,119.2z"/>
	<path d="M90.5,115.9h3.7v4.2h-3.7V115.9z"/>
</g>
<rect x="3.9" y="35.1" class="st2" width="19" height="19"/>
<rect x="822.7" y="152.1" class="st2" width="85.3" height="85.3"/>
<g>
	<path d="M851.3,192.1l-8.6-20.1h5.5l6.4,14.9l5.8-14.9h5.5l-8.8,20.5l9.3,21.6h-5.5l-6.9-15.9l-5.9,15.9h-5.5L851.3,192.1z"/>
	<path d="M876.6,199.3l-9.1-27.2h5.5l6.4,20.3l6.3-20.3h5.5l-9,27.2v14.9h-5.6V199.3z"/>
</g>
</svg>
