<?xml version="1.0" encoding="utf-8"?>
<!-- Generator: Adobe Illustrator 21.1.0, SVG Export Plug-In . SVG Version: 6.00 Build 0)  -->
<svg version="1.1" id="Livello_1" xmlns="http://www.w3.org/2000/svg" xmlns:xlink="http://www.w3.org/1999/xlink" x="0px" y="0px"
	 viewBox="0 0 550 550" style="enable-background:new 0 0 550 550;" xml:space="preserve">
<style type="text/css">
	.st0{fill:#FFFFFF;stroke:#1D1D1B;stroke-width:4;stroke-miterlimit:10;}
	.st1{fill:#1D1D1B;stroke:#1D1D1B;stroke-width:4;stroke-miterlimit:10;}
	.st2{fill:#FFFFFF;}
	.st3{fill:none;stroke:#1D1D1B;stroke-width:4;stroke-miterlimit:10;}
	.st4{fill:none;stroke:#1D1D1B;stroke-width:3;stroke-miterlimit:10;}
	.st5{fill:#1D1D1B;stroke:#1D1D1B;stroke-width:0.25;stroke-miterlimit:10;}
	.st6{fill:#1D1D1B;}
	.st7{fill:#FFFFFF;stroke:#1D1D1B;stroke-width:3;stroke-miterlimit:10;}
	.st8{fill:none;}
	.st9{font-family:'Roboto-Regular';}
	.st10{font-size:14px;}
</style>
<path class="st0" d="M530.3,371.8H23.2c-1,0-1.9-0.8-1.9-1.9V178c0-1,0.8-1.9,1.9-1.9h507.2c1,0,1.9,0.8,1.9,1.9v191.9
	C532.2,370.9,531.3,371.8,530.3,371.8z"/>
<circle class="st0" cx="105.7" cy="223.3" r="31.2"/>
<circle class="st0" cx="105.7" cy="223.3" r="10.6"/>
<path class="st1" d="M167.4,355.8H45.6c-0.9,0-1.6-0.7-1.6-1.6v-79.8c0-0.9,0.7-1.6,1.6-1.6h121.8c0.9,0,1.6,0.7,1.6,1.6v79.8
	C169.1,355.1,168.3,355.8,167.4,355.8z"/>
<path class="st2" d="M159,287.4H52.7c-2.4,0-4.4-2-4.4-4.4l0,0c0-2.4,2-4.4,4.4-4.4H159c2.4,0,4.4,2,4.4,4.4l0,0
	C163.4,285.4,161.4,287.4,159,287.4z"/>
<path class="st2" d="M158.9,302.5H52.5c-2.4,0-4.4-2-4.4-4.4l0,0c0-2.4,2-4.4,4.4-4.4h106.3c2.4,0,4.4,2,4.4,4.4l0,0
	C163.3,300.5,161.3,302.5,158.9,302.5z"/>
<path class="st2" d="M158.9,317.8H52.5c-2.4,0-4.4-2-4.4-4.4l0,0c0-2.4,2-4.4,4.4-4.4h106.3c2.4,0,4.4,2,4.4,4.4l0,0
	C163.3,315.8,161.3,317.8,158.9,317.8z"/>
<path class="st2" d="M158.9,333.5H52.6c-2.4,0-4.4-2-4.4-4.4v0c0-2.4,2-4.4,4.4-4.4h106.3c2.4,0,4.4,2,4.4,4.4v0
	C163.3,331.5,161.4,333.5,158.9,333.5z"/>
<path class="st2" d="M158.8,348.6H52.4c-2.4,0-4.4-2-4.4-4.4l0,0c0-2.4,2-4.4,4.4-4.4h106.3c2.4,0,4.4,2,4.4,4.4l0,0
	C163.2,346.6,161.2,348.6,158.8,348.6z"/>
<line class="st3" x1="192.3" y1="176.1" x2="192.3" y2="371.8"/>
<path class="st4" d="M496.9,227.8H228.5c-6.3,0-11.5-5.2-11.5-11.5V207c0-6.3,5.2-11.5,11.5-11.5h268.4c6.3,0,11.5,5.2,11.5,11.5
	v9.3C508.4,222.6,503.2,227.8,496.9,227.8z"/>
<path class="st4" d="M496.9,269.8H228.5c-6.3,0-11.5-5.2-11.5-11.5V249c0-6.3,5.2-11.5,11.5-11.5h268.4c6.3,0,11.5,5.2,11.5,11.5
	v9.3C508.4,264.6,503.2,269.8,496.9,269.8z"/>
<path class="st4" d="M496.9,311.6H228.5c-6.3,0-11.5-5.2-11.5-11.5v-9.3c0-6.3,5.2-11.5,11.5-11.5h268.4c6.3,0,11.5,5.2,11.5,11.5
	v9.3C508.4,306.4,503.2,311.6,496.9,311.6z"/>
<path class="st4" d="M496.9,353.3H228.5c-6.3,0-11.5-5.2-11.5-11.5v-9.3c0-6.3,5.2-11.5,11.5-11.5h268.4c6.3,0,11.5,5.2,11.5,11.5
	v9.3C508.4,348.1,503.2,353.3,496.9,353.3z"/>
<rect x="361.6" y="194.9" class="st5" width="3.1" height="31.2"/>
<rect x="362" y="238.9" class="st5" width="3.1" height="31.2"/>
<rect x="361.3" y="280.8" class="st5" width="3.1" height="31.2"/>
<rect x="361.2" y="320.7" class="st5" width="3.1" height="31.2"/>
<rect x="242.6" y="197.1" class="st5" width="3.1" height="31.2"/>
<rect x="479.3" y="195.8" class="st5" width="3.1" height="31.2"/>
<rect x="242.6" y="238.2" class="st5" width="3.1" height="31.2"/>
<rect x="242.6" y="279.9" class="st5" width="3.1" height="31.2"/>
<rect x="241.1" y="321.6" class="st5" width="3.1" height="31.2"/>
<rect x="479.3" y="238.7" class="st5" width="3.1" height="31.2"/>
<rect x="479.1" y="279.9" class="st5" width="3.1" height="31.2"/>
<rect x="479.4" y="322.5" class="st5" width="3.1" height="31.2"/>
<g>
	<g>
		<path class="st6" d="M223.6,202.9c-0.7,5,0.5,9.9,1.4,14.8c0.6,3.2,5.4,1.8,4.8-1.3c-0.7-3.9-1.9-8.1-1.4-12.1
			C228.9,201,224.1,199.7,223.6,202.9L223.6,202.9z"/>
	</g>
</g>
<g>
	<g>
		<path class="st6" d="M229.2,218.9c1.2-1.7,2.5-3.2,4-4.6c2.3-2.2-1.2-5.8-3.5-3.5c-1.8,1.7-3.4,3.6-4.8,5.6
			c-0.8,1.1-0.2,2.8,0.9,3.4C227,220.5,228.4,220,229.2,218.9L229.2,218.9z"/>
	</g>
</g>
<g>
	<g>
		<path class="st6" d="M223.8,203c2.7-0.3,5.3-0.7,7.9-1.2c2.6-0.5,6.3-1.6,9-0.8c-0.6-0.6-1.2-1.2-1.7-1.7c0.4,1.8-0.2,4.5-0.3,6.4
			c-0.1,1.7,0.1,4.1-1.1,5.5c-2.1,2.4,1.4,5.9,3.5,3.5c1.8-2.1,2.2-4.3,2.5-7c0.2-2.1,0.3-4.2,0.4-6.3c0.1-1.3,0.4-2.9-0.4-4.1
			c-1.4-2.2-5.1-1.5-7.2-1.3c-4.2,0.4-8.3,1.6-12.4,2C220.6,198.4,220.6,203.4,223.8,203L223.8,203z"/>
	</g>
</g>
<g>
	<g>
		<path class="st6" d="M237.4,329c3.2,0,3.2-5,0-5C234.2,324,234.2,329,237.4,329L237.4,329z"/>
	</g>
</g>
<g>
	<g>
		<path class="st6" d="M216.2,343.6c0.6,2.1,1.7,3.9,3.1,5.5c0.9,1,2.6,0.9,3.5,0c1-1,0.9-2.5,0-3.5c-0.8-0.9-1.4-2.1-1.8-3.3
			c-0.4-1.3-1.7-2.1-3.1-1.7C216.7,340.9,215.8,342.3,216.2,343.6L216.2,343.6z"/>
	</g>
</g>
<g>
	<g>
		<path class="st6" d="M99.5,221.6c0,4.3,3,8.3,7.3,9.2c3.1,0.7,4.5-4.1,1.3-4.8c-2.1-0.5-3.6-2.2-3.6-4.4
			C104.5,218.4,99.5,218.4,99.5,221.6L99.5,221.6z"/>
	</g>
</g>
<g>
	<path class="st6" d="M226.6,227.1c3.3,0.7,6.7,0.9,10.1,0.9c1.9,0,4.9,0.3,6.3-1.4c1.6-1.9-0.1-4.7,0-6.8c0.2-3.3,1.3-6.4,1.4-9.7
		c0.1-4.4-0.6-11-5.9-11.5c-1.3-0.1-3.1-0.3-4.9-0.3c0.3-1.2-0.2-2.5-1.7-2.9c-13.5-3.3-18,13-15.6,23.4
		C217.3,223.8,221.9,226.1,226.6,227.1z M227.9,215.2C227.9,215.2,227.8,215.2,227.9,215.2c-0.1-0.1-0.1-0.2,0-0.2
		C227.9,215.1,227.9,215.1,227.9,215.2z"/>
	<path class="st6" d="M244.8,240.9c0.4-1.2-0.5-2.8-1.7-3.1c-2.2-0.5-4.4-0.3-6.5,0.3c-4.8-2.2-12.4-0.2-15.7,3.1
		c-5.4,5.5-4.9,15.7-2,22.2c1.8,4,3.8,5.8,8.2,6.4c4.1,0.5,11.5,1,15.3-1c3.1-1.6,2.9-6.2,2.9-9.3
		C245.3,253.7,243.1,246.5,244.8,240.9z M227.6,259.2c0.1,0,0.1,0,0.2,0c0,0,0,0.1,0,0.1c-0.2,0.2-0.3,0.4-0.5,0.6
		C227.4,259.6,227.5,259.4,227.6,259.2z"/>
	<path class="st6" d="M243.3,282.5c0-1.3-1.1-2.5-2.5-2.5c-2.9,0.1-7.3-0.2-11.3,0.4c-2.5-0.5-5-0.3-6.9,0.9
		c-6.8,4.4-7.2,17-4.4,23.7c1.6,3.8,4.8,5.7,8.8,6.3c2.4,0.3,4.8-0.1,7.2-0.1c2,0,4.3,0.9,6.2,0.5c3.9-0.7,2.9-5.4,2.9-8.4
		C243.3,296.3,243.3,289.4,243.3,282.5z"/>
	<path class="st6" d="M239.6,321.2c-3.6,0.2-7-0.3-10.7-0.6c-2.2-0.2-4.2,0-6.1,1.2c-3.4,2.2-5.1,6.5-5.6,10.4
		c-0.6,5.1,1,10,3.2,14.6c2.1,4.5,4.6,6.1,9.5,6.6c3.2,0.4,8.7,1.1,11-1.7c1.3-1.5,1.2-3.7,1.3-5.6c0.3-3.5,0.4-7.1,0.4-10.6
		c0-2.7,1.1-8.4-0.8-11.1C242.2,322.8,241.5,321.1,239.6,321.2z M237.4,327.3c0.1-0.2,0.2-0.4,0.2-0.6c0.1,0,0.1,0.4,0.2,0.8
		C237.7,327.4,237.5,327.4,237.4,327.3z M236.4,348.3c0.1-0.1,0.2-0.2,0.3-0.2C236.6,348.2,236.5,348.3,236.4,348.3z"/>
	<path class="st6" d="M508.3,202.1c-1.4-2.8-5.4-4.6-8.3-5.1c-5.4-0.9-10.8-0.4-16.3-1.8c-2.9-0.7-4.3,3.5-1.8,4.6
		c0,0.1-0.1,0.3-0.1,0.4c-0.6,5.4-1,10.8-0.9,16.2c0,3.1-0.8,8.2,2,10.5c2.3,1.9,6.7,1.5,9.5,1.2c4.5-0.4,9-2.1,12.9-4.3
		c3.6-2,4-4.5,4.2-8.6C509.7,211.6,510,205.6,508.3,202.1z"/>
	<path class="st6" d="M503.4,239.7c-2.3-1.1-4.9-1.3-7.4-1.6c-3.2-0.3-7.3-1.2-10.4-0.4c-0.1,0-0.2,0.1-0.4,0.1
		c-1.6-1.3-4.7,0.1-4,2.6c2.1,7.4-3.1,18.2,0.6,25.3c-0.6,1.4,0.1,3.4,2.2,3.6c6,0.7,14.5,0.8,20-2.2c4.8-2.7,5-9.9,4.8-14.7
		C508.8,247.5,508.4,242.1,503.4,239.7z"/>
	<path class="st6" d="M484.1,311c9.2,1,23.4,0.6,24.5-11.2c0.9-9.9-2.9-19.9-13.9-20.7c-2.9-0.2-7.7-0.9-10.1,1.2
		c-1.2-2-4.9-1.7-4.6,1.1c0.9,9,1.5,18,1.6,27.1C481.6,309.9,482.7,310.8,484.1,311z"/>
	<path class="st6" d="M507.9,330.4c-1.5-2.4-3.1-4.4-5.1-6.3c-0.6-0.6-1.2-1.1-1.8-1.6c-1-0.8-2.2-0.7-3-0.2
		c-0.4-0.3-0.9-0.5-1.4-0.8c-2.8-1.5-8.4-2.8-11.3-1c-0.4,0.2-0.7,0.5-0.9,0.8c-1.5-0.6-3.6,0.1-3.6,2.2c-0.1,5.1-0.3,10.3-0.4,15.4
		c-0.1,3.5-0.6,7.4,0.7,10.7c2.4,5.7,12.6,4.6,17.4,3c9.2-3.2,11.8-11.9,9.5-19.8C508.4,332.2,508.5,331.3,507.9,330.4z"/>
	<path class="st6" d="M113.1,216.4c-1-0.7-2.4-1.1-3.9-1.3c-1.3-1-2.8-1.9-4.2-2.8c-1.1-0.6-2.9-0.3-3.4,0.9
		c-0.3,0.7-0.6,1.5-0.9,2.3c-0.2,0.2-0.4,0.3-0.5,0.5c-1.7,0.8-3.1,2-4,3.8c-1.4,2.8-1.5,7.6,0.1,10.4c1.7,2.9,6.7,3.8,9.9,4
		c3.4,0.2,6.2-0.8,6.8-4.4c0-0.1,0-0.2,0-0.2c0.9-0.1,1.6-0.7,1.9-1.8c0.2-1.1,0.3-2.2,0.2-3.2C115.4,221.6,115.5,218.1,113.1,216.4
		z M102.4,224.3c0.4,0.1,0.8,0.2,1.2,0.2c0.4,0.1,0.9,0.1,1.3,0.2c0.2,0.3,0.4,0.6,0.6,1c-0.1,0.5-0.3,1-0.6,1.3
		c-0.5,0.6-0.5,0.6-1.2-0.5c-0.3-0.5-1.5-2-1.5-2.2C101.6,224.1,101.7,224.1,102.4,224.3z"/>
</g>
<circle class="st4" cx="105.9" cy="223.3" r="25"/>
<path class="st7" d="M502.2,141.4H46.4c-3.1,0-5.7,2.5-5.7,5.7v29.1h467.1v-29.1C507.8,143.9,505.3,141.4,502.2,141.4z"/>
<rect x="52.4" y="153.3" class="st8" width="142.1" height="16.9"/>
<text transform="matrix(1 0 0 1 52.3848 163.802)" class="st6 st9 st10">Building Name: xyz   </text>
<rect x="298.1" y="153.7" class="st8" width="162.2" height="16.1"/>
<text transform="matrix(1 0 0 1 298.1122 164.1798)" class="st6 st9 st10">Street address: xyz</text>
<text transform="matrix(1 0 0 1 289.7705 215.9662)" class="st6 st9 st10">xyz</text>
<text transform="matrix(1 0 0 1 289.7705 340.7705)" class="st6 st9 st10">xyz</text>
<text transform="matrix(1 0 0 1 289.7705 299.0803)" class="st6 st9 st10">xyz</text>
<text transform="matrix(1 0 0 1 289.7705 257.9004)" class="st6 st9 st10">xyz</text>
<text transform="matrix(1 0 0 1 409.6703 216.0886)" class="st6 st9 st10">xyz</text>
<text transform="matrix(1 0 0 1 409.6703 257.9004)" class="st6 st9 st10">xyz</text>
<text transform="matrix(1 0 0 1 409.6703 298.0803)" class="st6 st9 st10">xyz</text>
<text transform="matrix(1 0 0 1 409.6703 340.7704)" class="st6 st9 st10">xyz</text>
</svg>
