<?xml version="1.0" encoding="utf-8"?>
<!-- Generator: Adobe Illustrator 21.1.0, SVG Export Plug-In . SVG Version: 6.00 Build 0)  -->
<svg version="1.1" xmlns="http://www.w3.org/2000/svg" xmlns:xlink="http://www.w3.org/1999/xlink" x="0px" y="0px"
	 viewBox="0 0 800 800" style="enable-background:new 0 0 800 800;" xml:space="preserve">
<style type="text/css">
	.st0{display:none;}
	.st1{display:inline;fill:#F1F2F2;}
	.st2{clip-path:url(#SVGID_2_);}
	.st3{fill:none;stroke:#3C3D3D;stroke-width:2;stroke-miterlimit:10;}
	.st4{fill:none;stroke:#3C3D3D;stroke-width:2;stroke-linecap:round;stroke-linejoin:round;stroke-miterlimit:10;}
</style>
<g id="Background" class="st0">
	<rect class="st1" width="800" height="800"/>
</g>
<g id="Objects">
	<g>
		<defs>
			<rect id="SVGID_1_" width="800" height="800"/>
		</defs>
		<clipPath id="SVGID_2_">
			<use xlink:href="#SVGID_1_"  style="overflow:visible;"/>
		</clipPath>
		<g class="st2">
			<g>
				<rect x="331.3" y="238.3" class="st3" width="113.7" height="140.7"/>
				<rect x="336.6" y="242.9" class="st3" width="103" height="131.5"/>
			</g>
			<rect x="524.7" y="287.3" class="st3" width="130.7" height="7.1"/>
			<rect x="127.8" y="329.5" class="st3" width="77.7" height="7.1"/>
			<rect x="555.4" y="241" class="st3" width="9.3" height="45.8"/>
			<rect x="574.9" y="256.7" class="st3" width="10.8" height="30.1"/>
			<rect x="544.6" y="256.7" class="st3" width="10.8" height="30.1"/>
			<rect x="565.1" y="234.8" class="st3" width="9.3" height="52"/>
			
				<rect x="589.5" y="245" transform="matrix(0.9506 -0.3105 0.3105 0.9506 -53.1857 197.6525)" class="st3" width="9.3" height="41.8"/>
			<rect x="528.8" y="359.3" class="st3" width="130.7" height="7.1"/>
			<rect x="559.5" y="313" class="st3" width="9.3" height="45.8"/>
			<rect x="579" y="328.7" class="st3" width="10.8" height="30.1"/>
			<rect x="548.7" y="328.7" class="st3" width="10.8" height="30.1"/>
			<rect x="621.3" y="328.7" class="st3" width="10.8" height="30.1"/>
			<rect x="632" y="328.7" class="st3" width="10.8" height="30.1"/>
			<rect x="569.1" y="306.8" class="st3" width="9.3" height="52"/>
			<rect x="610.5" y="328.7" class="st3" width="10.8" height="30.1"/>
			<rect x="600.7" y="306.8" class="st3" width="9.3" height="52"/>
			<rect x="528.8" y="431.5" class="st3" width="130.7" height="7.1"/>
			<rect x="609.5" y="385.3" class="st3" width="9.3" height="45.8"/>
			<rect x="629" y="401" class="st3" width="10.8" height="30.1"/>
			<rect x="598.7" y="401" class="st3" width="10.8" height="30.1"/>
			<rect x="619.1" y="379.1" class="st3" width="9.3" height="52"/>
			<path class="st4" d="M163.6,328.8c0-6.9-0.7-11.6-2.7-22.1c-2-10.5-0.9-15.5-0.9-15.5h-2.6H157h-2.6c0,0,1.1,5-0.9,15.5
				c-2,10.5-2.7,15.2-2.7,22.1l6.4-0.1L163.6,328.8z"/>
			<path class="st4" d="M182.4,328.8c0-3.2-0.7-5.3-2.7-10.1c-2-4.8-0.9-7.1-0.9-7.1h-2.6h-0.5h-2.6c0,0,1.1,2.3-0.9,7.1
				c-2,4.8-2.7,7-2.7,10.1l6.4-0.1L182.4,328.8z"/>
			<path class="st3" d="M243.4,473.7"/>
			<g>
				<path class="st3" d="M61.4,177.2"/>
				<line class="st3" x1="79.5" y1="157.4" x2="-17" y2="72.1"/>
				<polyline class="st3" points="-4.4,155.4 56.5,199.1 56.5,590.2 31.2,590.2 2.4,594 				"/>
				<polyline class="st3" points="31.2,604.1 31.2,199.2 -6.1,177.5 				"/>
				<polyline class="st3" points="79.5,597.2 79.5,157.5 724.1,157.9 				"/>
				<line class="st3" x1="79.5" y1="582.2" x2="724.1" y2="582.7"/>
				<line class="st3" x1="79.5" y1="597.2" x2="725.1" y2="597.3"/>
				<polyline class="st3" points="79.5,582.2 56.5,590.2 59.5,592.8 59.5,603.7 32.1,603.7 3.2,613.6 				"/>
				<path class="st3" d="M32.1,603.7"/>
				<line class="st3" x1="60" y1="603.7" x2="78.4" y2="596.8"/>
				<line class="st3" x1="31.2" y1="199.2" x2="56.5" y2="199.2"/>
				<polyline class="st3" points="-8,34.1 92,141.6 711.6,142.1 				"/>
				<polyline class="st3" points="-3,28.6 93.5,134.6 710.1,135.1 				"/>
			</g>
			<g>
				<path class="st3" d="M742.2,177.7"/>
				<line class="st3" x1="724.1" y1="157.9" x2="820.6" y2="72.6"/>
				<path class="st3" d="M772.4,604.6"/>
				<line class="st3" x1="724.1" y1="597.7" x2="724.1" y2="158"/>
				<path class="st3" d="M771.5,604.2"/>
				<line class="st3" x1="724.1" y1="582.7" x2="818" y2="615.3"/>
				<line class="st3" x1="806.4" y1="627.8" x2="725.1" y2="597.3"/>
				<line class="st3" x1="811.6" y1="33.6" x2="711.6" y2="142.1"/>
				<line class="st3" x1="806.6" y1="28.1" x2="710.1" y2="135.1"/>
			</g>
			<g>
				<polygon class="st3" points="863.2,430.5 749.5,390.5 749.5,249.8 863.2,189.8 				"/>
				<polygon class="st3" points="857.9,425.9 754.9,385.9 754.9,254.4 857.9,194.4 				"/>
			</g>
		</g>
	</g>
</g>
</svg>
