<?xml version="1.0" encoding="utf-8"?>
<!-- Generator: Adobe Illustrator 17.0.0, SVG Export Plug-In . SVG Version: 6.00 Build 0)  -->
<!DOCTYPE svg PUBLIC "-//W3C//DTD SVG 1.0//EN" "http://www.w3.org/TR/2001/REC-SVG-20010904/DTD/svg10.dtd">
<svg version="1.0" id="Layer_1" xmlns="http://www.w3.org/2000/svg" xmlns:xlink="http://www.w3.org/1999/xlink" x="0px" y="0px"
	 width="1000px" height="1000px" viewBox="0 0 1000 1000" enable-background="new 0 0 1000 1000" xml:space="preserve">
<g>
	<path d="M661.25,427.809c-0.165,0.069-0.333,0.132-0.497,0.205c-0.847,0.582-1.69,1.168-2.507,1.791
		c-0.057,0.046-0.125,0.101-0.213,0.172c-0.252,0.201-0.502,0.403-0.75,0.607c-0.465,0.384-0.93,0.769-1.38,1.171
		c-0.367,0.327-0.725,0.665-1.075,1.011c5.259-2.283,10.478-4.663,15.68-7.083c-0.528,0.185-1.106,0.305-1.733,0.357
		C666.473,426.569,663.753,427.053,661.25,427.809z"/>
	<path d="M908.959,833.777c-9.65-7.909-19.292-15.83-29.036-23.625c-20.879-16.703-41.869-33.267-62.713-50.012
		c-19.967-16.041-39.73-32.335-59.732-48.332c-12.2-9.758-12.247-9.599-11.988-25.402c0.158-9.649,0.029-19.304,0.029-28.956
		c-0.589-0.004-1.178-0.009-1.767-0.013c-0.084,1.725-0.231,3.449-0.242,5.175c-0.047,7.623-0.14,15.246-0.038,22.867
		c0.044,3.244-1.022,4.737-4.489,4.65c-4.894-0.123-5.75-0.901-5.77-7.746c-0.146-51.211-0.254-102.422-0.329-153.633
		c-0.03-20.597,0.069-41.194,0.064-61.792c0-1.616-0.353-3.232-0.541-4.847c-0.513,0.047-1.026,0.094-1.538,0.141v227.915
		c-10.35-8.155-19.693-15.316-28.729-22.845c-1.409-1.174-1.956-4.018-1.988-6.104c-0.238-15.221-0.31-30.446-0.308-45.67
		c0.008-66.105,0.062-132.209,0.071-198.314c-1.144,0.487-2.333,0.917-3.553,1.299v244.066c-3.126-2.441-5.71-4.422-8.255-6.452
		c-15.328-12.228-30.682-24.424-45.898-36.79c-0.495-0.403-0.835-1.054-1.087-1.789c-1.529-0.627-2.886-1.575-4.007-2.772
		c-0.159,0.125-0.317,0.249-0.476,0.374c-4.971-3.777-9.689-7.964-14.973-11.237c-2.185-1.353-3.889-2.85-5.23-4.486
		c-3.216-1.819-6.062-4.158-8.152-6.901c-4.189-3.251-7.459-5.788-10.717-8.317c-11.197-9.037-22.398-18.071-33.59-27.114
		c-2.769-2.237-5.674-4.342-8.193-6.835c-1.098-1.086-1.921-2.99-1.944-4.536c-0.159-10.828-0.093-21.659-0.065-32.49
		c0.037-14.356,0.192-28.712,0.1-43.066c-0.024-3.779,1.092-6.305,4.46-8.344c11.503-6.964,22.829-14.221,34.244-21.331
		c0.926-0.577,2.016-0.889,3.835-1.669c0.042,0.321,0.089,0.62,0.135,0.927c0.084-0.035,0.166-0.074,0.251-0.109
		c1.924-0.786,3.967-1.298,6.011-1.803c1.029-1.105,2.326-2.106,3.928-3.069c39.471-23.711,78.779-47.695,118.188-71.512
		c2.066-1.249,4.58-1.755,7.896-2.981c0-9.322,0.067-19.349-0.014-29.375c-0.152-18.611-0.503-37.221-0.567-55.832
		c-0.115-33.406-0.063-66.812-0.114-100.218c-0.021-13.777-0.127-27.555-0.194-41.332h-1.947
		c0.011,48.326,0.034,96.651,0.026,144.977c-0.002,12.127-0.116,24.254-0.144,36.381c-0.006,2.728-0.999,4.094-3.996,4.233
		c-3.918,0.181-7.812,0.885-12.069,1.408c-0.011-0.14-0.192-1.532-0.216-2.927c-0.292-16.654-0.727-33.307-0.784-49.962
		c-0.046-13.424,0.477-26.85,0.547-40.276c0.055-10.522-0.234-21.046-0.288-31.57c-0.016-3.065,0.462-6.142,0.296-9.192
		c-0.077-1.413-1.154-2.771-1.777-4.154c-1.304,0.789-3.049,1.273-3.84,2.416c-5.344,7.734-10.442,15.637-15.699,23.432
		c-27.924,41.409-55.87,82.802-83.814,124.197c-0.529,0.784-1.129,1.521-1.746,2.348c-2.145-3.428-2.127-4.574,0.486-8.707
		c8.753-13.841,17.532-27.666,26.338-41.473c31.388-49.213,62.794-98.415,94.166-147.638c0.676-1.061,1.034-2.325,1.54-3.494h-2.92
		c-8.422,13.473-16.748,27.007-25.284,40.407c-26.057,40.903-52.194,81.755-78.309,122.621c-1.301,2.035-2.683,4.018-4.934,5.618
		c2.053-4.707,4.036-9.445,6.171-14.114c9.102-19.911,17.75-40.053,27.556-59.612c6.522-13.008,14.75-25.159,22.167-37.721
		c10.473-17.738,20.909-35.498,31.333-53.265c0.729-1.242,1.226-2.619,1.831-3.933h-2.92c-0.533,1.177-0.962,2.415-1.613,3.523
		c-14.124,24.045-28.295,48.062-42.403,72.116c-4.735,8.073-9.915,15.956-13.864,24.406c-13.998,29.954-27.609,60.091-41.187,90.239
		c-1.396,3.1-1.538,6.754-2.364,10.126c-0.459,1.873-1.129,3.693-1.595,5.186c0.573,2.266,1.659,4.599,1.678,6.941
		c0.148,18.279,0.221,36.561-0.064,54.836c-0.005,0.355-0.054,0.723-0.132,1.096c-0.052,4.692-0.197,8.999-1.605,13.099
		c-0.949,3.398-2.483,6.588-4.756,9.636c-1.897,3.661-4.388,6.971-7.535,9.671c-7.11,6.098-15.365,10.928-22.825,16.586
		c-3.134,2.377-6.267,4.669-9.554,6.687c-1.556,1.766-3.152,3.519-4.297,5.52c-0.142,4.414-0.55,8.816-1.006,13.219
		c0.144,5.269,0.591,10.489,0.023,15.675c0.053,0.195,0.086,0.391,0.09,0.587c0.186,9.632,0.229,19.269,0.108,28.902
		c0.379,0.815,0.599,1.767,0.602,2.86c0.02,7.413,0.062,14.723-1.379,22.031c-0.139,0.705-0.363,1.319-0.643,1.861
		c-0.076,0.933-0.147,1.807-0.227,2.784c-1.101,0-2.271,0.008-3.464,0.015c-0.885,0.189-1.824,0.189-2.747,0.008
		c-1.469,0.001-2.961-0.006-4.461-0.044c-3.734-0.092-5.121,1.644-5.16,5.326c-0.077,7.226,4.448,12.076,8.306,17.354
		c11.191,15.309,22.422,30.591,33.368,46.074c0.413,0.584,0.752,1.22,1.067,1.874c0.102,0.164,0.223,0.337,0.347,0.512
		c0.54,0.526,1.05,1.074,1.56,1.63c0.576,0.629,1.31,1.359,1.782,2.162c0.064,0.09,0.113,0.189,0.161,0.288
		c0.027,0.041,0.06,0.074,0.084,0.117c0.003-0.007,0.005-0.015,0.008-0.023c2.029,3.289,3.269,5.299,4.363,7.073
		c0.305,0.38,0.596,0.771,0.861,1.176c0.785,1.199,1.668,2.345,2.365,3.599c1.377,1.075,2.649,2.439,3.853,4.129
		c46.101,64.715,92.337,129.334,138.539,193.977h1.947c-2.648-4.019-5.222-8.088-7.959-12.044
		c-4.235-6.122-8.368-12.334-12.953-18.188c-3.197-4.082-4.444-8.446-4.334-13.485c0.13-5.964,0.031-11.932,0.031-18.068
		c6.17,2.681,18.736,20.582,17.795,23.094c2.98,2.689,5.932,4.737,8.102,7.418c8.346,10.315,16.441,20.832,24.629,31.274h2.92
		c-7.682-9.834-15.455-19.599-22.98-29.553c-1.814-2.399-2.792-5.428-4.18-8.153c-0.207-0.407-0.486-0.857-0.856-1.092
		c-11.472-7.292-16.072-20.211-25.326-29.312c0.237-0.448,0.473-0.897,0.71-1.345c1.657-0.131,3.313-0.375,4.97-0.376
		c33.076-0.014,66.152,0.022,99.228-0.007c7.073-0.006,13.032,1.617,18.883,6.481c24.053,19.996,48.644,39.343,73.008,58.964
		c1.627,1.31,3.011,2.921,4.508,4.392h2.92C910.36,835.499,909.8,834.466,908.959,833.777z M729.815,327.888
		c0.041,6.571,0.009,13.143,0.009,19.715c-0.318,0.061-0.637,0.122-0.955,0.183c-2.429-8.389-4.858-16.777-7.294-25.19
		C728.913,320.747,729.775,321.354,729.815,327.888z M710.744,317.398c0.068,5.954-1.445,9.632-6.079,13.434
		c-27.206,22.317-54.098,45.017-81.097,67.585c-2.972,2.484-5.953,4.956-10.151,8.449c0-3.131-0.001-4.859,0-6.587
		c0.013-19.453-0.057-38.908,0.144-58.359c0.025-2.409,0.979-5.163,2.368-7.151c27.588-39.485,55.286-78.893,83.015-118.28
		c3.248-4.613,6.802-9.011,11.14-14.729c0.145,3.058,0.3,4.839,0.303,6.62C710.457,244.72,710.332,281.062,710.744,317.398z
		 M709.895,186.852c0.95,5.445,0.436,9.392-2.307,13.259c-17.339,24.441-34.503,49.007-51.786,73.488
		c-13.547,19.189-27.177,38.319-40.789,57.461c-0.983,1.383-2.117,2.658-3.181,3.982l-1.369-0.986
		C643.437,285.239,676.412,236.422,709.895,186.852z M604.685,373.918c0.215-9.718,0.472-19.437,0.998-29.141
		c0.067-1.231,1.851-2.369,2.84-3.55c0.808,1.333,2.32,2.667,2.316,3.998c-0.035,12.947-0.364,25.892-0.524,38.839
		c-0.092,7.437,0.141,14.883-0.149,22.31c-0.078,1.984-1.542,3.915-2.369,5.87c-1.023-0.228-2.045-0.457-3.068-0.685
		c0-7.38,0.008-14.759-0.003-22.139C604.718,384.252,604.571,379.082,604.685,373.918z M600.871,420.241
		c37.797-31.373,75.64-62.691,113.494-93.995c1.081-0.894,2.358-1.551,4.462-2.913c3.247,11.18,6.363,21.39,9.018,31.719
		c0.323,1.256-1.461,3.765-2.907,4.659c-24.826,15.344-49.738,30.55-74.663,45.733c-14.538,8.856-29.128,17.627-43.711,26.409
		c-1.341,0.808-2.8,1.42-5.054,2.548c-1.047-3.988-2.153-7.326-2.683-10.752C598.668,422.627,599.879,421.064,600.871,420.241z
		 M742.32,699.495c-2.645-2.088-5.184-4.092-7.927-6.257C742.739,691.218,744.996,693.691,742.32,699.495z M675.953,649.613
		c16.294,12.802,32.428,25.808,48.595,38.772c0.34,0.273,0.542,0.719,1.092,1.475c-1.735,0.092-3.122,0.23-4.508,0.23
		c-23.323,0.002-46.646-0.091-69.968,0.044c-4.319,0.025-7.26-1.445-9.877-4.855c-8.675-11.304-17.597-22.417-26.41-33.614
		c-0.68-0.864-1.249-1.817-2.641-3.861c3.911,0,6.615-0.001,9.32,0c16.035,0.005,32.07-0.052,48.103,0.091
		C671.784,647.914,674.365,648.365,675.953,649.613z M638.529,619.478c10.101,7.848,20,15.955,29.949,23.998
		c0.326,0.263,0.468,0.753,0.931,1.536c-1.701,0.109-3.089,0.274-4.477,0.276c-15.227,0.023-30.471-0.387-45.676,0.201
		c-7.245,0.28-12.14-1.963-15.393-8.048c-2.585-2.442-4.852-5.271-6.649-8.23c-0.013-0.022-0.023-0.045-0.036-0.067
		c-0.745-0.959-1.493-1.915-2.27-2.848c-0.196-0.235-0.349-0.491-0.482-0.754c-0.279-0.252-0.534-0.525-0.756-0.836
		c-2.082-1.447-3.619-3.791-5.127-6.685c1.729-0.226,3.037-0.544,4.346-0.546c13.121-0.023,26.244-0.078,39.363,0.105
		C634.376,617.608,636.905,618.215,638.529,619.478z M596.159,586.049c4.441,3.38,8.757,6.922,13.122,10.401
		c-0.153,0.452-0.306,0.903-0.459,1.355c-4.941,0-9.881,0.002-14.822-0.001c-3.082-0.002-6.25-0.479-9.232,0.065
		c-11.583,2.111-18.289-3.667-22.959-14.633c10.006,0,19.676-0.133,29.336,0.125C592.848,583.406,594.65,584.9,596.159,586.049z
		 M587.736,578.748c-0.135,0.456-0.271,0.913-0.406,1.369c-9.259,0-18.546,0.389-27.758-0.268c-2.363-0.169-4.49-3.642-6.725-5.597
		c0.21-0.488,0.42-0.977,0.63-1.465c8.187,0,16.433-0.572,24.531,0.272C581.411,573.414,584.502,576.761,587.736,578.748z
		 M564.646,561.543c-0.003,0.289-0.006,0.577-0.009,0.866h-19.715c0.003-0.289,0.006-0.577,0.009-0.866H564.646z M538.736,555.016
		c6.881-0.474,14.01-3.883,20.282,2.029C552.188,556.929,545.074,559.526,538.736,555.016z M546.214,576.197
		c-0.668-2.066-1.336-4.132-2.003-6.198c0.719-0.217,1.439-0.433,2.158-0.649c0.537,2.103,1.074,4.205,1.61,6.308
		C547.391,575.837,546.802,576.017,546.214,576.197z M573.644,568.595c-8.477-0.146-17.182,2.935-25.246-1.689
		C556.914,566.366,565.52,564.3,573.644,568.595z M553.537,587.106c-1.276-3.588-2.553-7.175-3.829-10.763
		c0.755-0.288,1.509-0.576,2.263-0.865c1.451,3.518,2.901,7.036,4.351,10.555C555.394,586.391,554.466,586.749,553.537,587.106z
		 M569.011,605.87c-6.027-3.957-11.116-13.594-9.385-19.388C564.06,592.998,570.975,597.171,569.011,605.87z M582.935,627.188
		c-4.175-5.921-7.974-10.675-10.945-15.901c-0.919-1.616,0.417-4.513,0.865-7.923C577.834,610.791,586.075,615.423,582.935,627.188z
		 M574.828,600.831c4.472,0,8.105-0.001,11.739,0c4.853,0.002,9.821,0.68,14.538-0.122c12.651-2.151,20.972,4.87,30.133,13.628
		c-7.904,0-14.648,0.006-21.393-0.002c-5.177-0.006-10.445-0.652-15.511,0.088C583.927,615.943,579.834,609.005,574.828,600.831z
		 M607.462,661.19c-4.886-6.661-9.536-12.943-14.053-19.259c-1.186-1.315-2.067-2.737-2.885-4.349
		c-0.768-1.514-1.697-2.938-2.276-4.53c-0.663-0.907-1.139-2.111-1.05-3.057c0.093-0.989,1.62-2.509,2.593-2.575
		c1.112-0.075,3.269,1.135,3.322,1.884c0.008,0.012,0.017,0.021,0.024,0.034c0.063,0.108,0.116,0.221,0.178,0.33
		c2.698,3.12,5.46,6.177,8.342,9.164c0.198,0.205,0.331,0.423,0.428,0.644C607.724,645.205,609.153,652.278,607.462,661.19z
		 M643.427,709.49c-0.428,0.164-0.856,0.328-1.284,0.493c-4.79-6.637-9.597-13.261-14.365-19.914
		c-3.871-5.401-7.302-11.175-11.636-16.17c-5.633-6.492-6.639-13.71-5.22-22.165c0.836,0.579,1.687,0.923,2.182,1.547
		c9.357,11.815,18.999,23.426,27.858,35.606C645.399,694.989,644.203,702.468,643.427,709.49z M703.67,793.619
		c-0.381,0.138-0.761,0.277-1.142,0.416c-8.394-11.67-16.796-23.335-25.18-35.013c-7.651-10.656-14.646-21.868-23.112-31.83
		c-7.586-8.926-8.962-18.524-7.201-30.241c1.715,2.004,3.153,3.569,4.463,5.234c16.33,20.74,32.726,41.43,48.845,62.334
		c1.903,2.468,2.951,6.08,3.182,9.251C704.005,780.354,703.67,786.999,703.67,793.619z M812.857,764.07
		c-34.531,0.012-69.062-0.033-103.593,0.064c-3.68,0.01-6.536-0.816-8.874-3.822c-17.015-21.877-34.108-43.693-51.165-65.537
		c-0.288-0.368-0.439-0.842-0.969-1.887c1.826-0.12,3.329-0.312,4.831-0.302c24.955,0.172,49.91,0.328,74.863,0.653
		c1.749,0.023,3.763,0.989,5.178,2.114c27.281,21.68,54.494,43.445,81.7,65.22c0.938,0.751,1.656,1.777,2.967,3.212
		C815.652,763.912,814.254,764.069,812.857,764.07z"/>
	<path opacity="0.7" d="M452.648,432.58c-20.031-35.357-40.374-70.536-60.493-105.512c-2.478,0.28-4.994,0.808-7.512,0.813
		c-29.685,0.065-59.371-0.043-89.056,0.15c-5.06,0.033-8.96-1.492-12.765-4.691c-33.637-28.273-67.406-56.389-101.066-84.635
		c-33.039-27.725-66.009-55.532-98.979-83.34c-8.541-7.204-16.966-14.547-25.444-21.826h-3.894
		c11.635,9.82,23.257,19.655,34.906,29.457c34.613,29.123,69.264,58.201,103.774,87.445c1.692,1.434,2.956,4.236,3.09,6.481
		c0.402,6.731,0.145,13.502,0.145,21.939c-64.961-48.601-128.68-96.273-192.399-143.945c-0.395,0.421-0.789,0.843-1.184,1.265
		c0.99,0.998,1.871,2.141,2.985,2.973c47.69,35.601,95.414,71.157,143.103,106.759c33.527,25.029,67.046,50.068,100.446,75.266
		c2.664,2.01,4.398,5.253,6.547,7.946c-9.547-6.891-19.164-13.688-28.628-20.692c-42.756-31.643-85.464-63.353-128.199-95.025
		c-29.967-22.209-59.934-44.42-89.965-66.543c-2.125-1.565-4.779-2.41-7.188-3.59v0.973c0.871,0.726,1.708,1.498,2.617,2.171
		c38.313,28.371,76.622,56.748,114.954,85.094c64.678,47.829,129.32,95.705,194.136,143.346c6.32,4.645,9.943,9.441,7.733,17.45
		c-0.417,1.514-0.127,3.228-0.13,4.849c-0.097,53.526-0.194,107.052-0.281,160.578c-0.023,13.939-0.025,13.889-13.071,18.421
		c-4.007,1.392-7.889,3.141-12.791,5.114c0-4.094-0.018-6.98,0.003-9.866c0.301-41.836,0.528-83.673,0.948-125.508
		c0.174-17.309,0.798-34.612,1.084-51.921c0.017-1.039-0.895-2.569-1.812-3.072c-8.223-4.508-16.641-8.663-24.821-13.245
		c-48.522-27.184-97.005-54.439-145.48-81.707c-12.684-7.135-25.292-14.405-38.711-22.056c-0.332,2.554-0.762,4.37-0.777,6.19
		c-0.298,35.998-0.539,71.996-0.811,107.994c-0.328,43.296-0.673,86.591-1.013,129.887c-0.372,47.351-0.819,94.702-1.022,142.053
		c-0.024,5.527-1.896,8.434-7.114,10.466c-22.361,8.706-44.576,17.789-66.82,26.795c-1.867,0.756-3.553,1.959-5.322,2.954
		c1.456,0.752,2.368,0.564,3.218,0.221c38.192-15.418,76.426-30.734,114.537-46.348c11.576-4.743,22.847-9.561,35.905-8.338
		c8.606,0.806,17.348,0.153,26.03,0.153c0.073,0.553,0.146,1.105,0.219,1.658c-1.506,0.787-2.988,1.628-4.523,2.353
		c-16.855,7.966-33.706,15.939-50.582,23.862c-30.234,14.195-60.49,28.345-90.724,42.541c-11.878,5.577-23.722,11.229-35.582,16.847
		v1.947c4.677-2.142,9.369-4.253,14.03-6.431c26.741-12.496,53.468-25.02,80.211-37.513c27.771-12.973,55.551-25.926,83.335-38.87
		c3.206-1.494,6.461-2.88,9.7-4.318c3.416,8.534,1.495,14.962-5.925,18.921c-25.183,13.437-50.462,26.695-75.69,40.046
		c-32.97,17.448-65.935,34.908-98.875,52.414c-2.093,1.112-3.949,2.67-5.915,4.021l1.015,1.533c1.711-0.974,3.399-1.994,5.138-2.915
		c54.892-29.079,109.849-58.034,164.617-87.343c8.161-4.367,16.417-6.488,25.492-6.434c12.47,0.075,24.94,0.019,37.411,0.019
		c0.181,0.567,0.362,1.135,0.543,1.702c-1.545,1.154-3.041,2.38-4.642,3.45c-33.581,22.438-67.24,44.758-100.745,67.308
		c-36.865,24.811-73.59,49.831-110.376,74.759c-0.269,0.182-0.519,0.424-0.817,0.525c-10.223,3.456-11.527,11.171-9.744,20.366
		h1.947c-1.566-8.855,2.611-14.135,9.857-18.959c43.295-28.82,86.307-58.067,129.431-87.145
		c27.943-18.841,55.916-37.639,83.879-56.449c1.446-0.972,2.935-1.881,5.2-3.328c0,7.026,0.207,13.236-0.173,19.41
		c-0.077,1.252-2.285,2.473-3.65,3.529c-8.822,6.825-17.63,13.67-26.54,20.38c-27.919,21.025-55.847,42.037-83.836,62.968
		c-24.908,18.627-49.909,37.131-74.844,55.721c-1.536,1.145-2.858,2.576-4.28,3.874h2.92c18.395-13.835,36.735-27.744,55.196-41.49
		c44.743-33.312,89.508-66.595,134.403-99.701c2.758-2.034,6.707-3.352,10.134-3.424c16.697-0.351,33.406-0.172,50.11-0.155
		c1.701,0.002,3.401,0.178,5.934,0.32c-1.312,1.739-1.959,2.81-2.806,3.688c-19.705,20.411-39.516,40.719-59.133,61.214
		c-24.55,25.649-48.946,51.445-73.392,77.193c-0.658,0.694-1.128,1.566-1.686,2.355h1.947
		c44.63-46.717,89.26-93.433,134.819-141.122c0.142,10.342,1.201,18.494-5.923,26.544c-32.555,36.785-64.344,74.248-96.397,111.477
		c-0.841,0.976-1.551,2.065-2.322,3.102h2.92c0.481-0.836,0.846-1.771,1.462-2.492c10.203-11.943,20.398-23.894,30.673-35.775
		c24.828-28.71,49.695-57.386,74.551-86.072c15.271-17.624,30.545-35.244,45.83-52.855c2.848-3.281,5.788-6.482,8.627-9.77
		c2.964-3.432,5.677-7.105,8.87-10.303c1.289-1.291,3.514-2.101,5.39-2.268c2.005-0.179,4.015-0.303,6.026-0.412
		c0.306-0.511,0.647-0.998,1.01-1.468c-0.353-0.148-0.629-0.335-0.719-0.589c-0.599-1.69-0.664-3.866-0.095-5.555
		c0.312-0.926,2.361-1.266,3.865-1.984c-0.136,1.907-0.253,3.554-0.371,5.213c0.343-0.33,0.688-0.658,1.034-0.981
		c1.128-1.053,2.052-2.299,3.092-3.429v-0.068c0.015,0.007,0.027,0.014,0.042,0.021c0.316-0.341,0.658-0.657,1.007-0.966
		c-2.681-0.366-5.505-0.751-8.829-1.204c2.334-1.9,4.217-2.934,5.415-4.495c5.646-7.354,10.696-15.202,16.714-22.226l35.793-43.655
		c-1.378-1-1.667-1.577-1.667-2.155c0.011-23.983,0.019-47.965,0.164-71.947c-0.051-0.152-0.087-0.317-0.087-0.505v-10.345
		c0-0.174,0.031-0.328,0.075-0.471c-0.013-0.123-0.035-0.246-0.034-0.367c0.058-8.093,0.527-16.185,0.493-24.276
		c-0.01-2.409-0.607-5.215-1.944-7.138c-3.042-4.377-6.893-8.183-10.064-12.481c-0.281-0.38-0.546-0.774-0.816-1.163
		c-0.238-0.112-0.459-0.293-0.632-0.571c-0.448-0.716-0.905-1.414-1.372-2.1c-0.716-0.179-1.07-0.826-1.059-1.476
		c-1.268-1.729-2.63-3.374-4.2-4.923c-0.581-0.573-1.17-1.176-1.78-1.762c-0.059-0.045-0.127-0.079-0.178-0.132
		c-0.048-0.05-0.086-0.109-0.132-0.161c-1.043-0.977-2.156-1.87-3.397-2.461c-0.559-0.125-1.135-0.205-1.727-0.242v71.138
		l1.826,0.023v-66.012c2.557,1.685,3.681,2.449,4.629,4.184c1.738,1.854,3.614,3.576,5.334,5.449
		c0.096,0.105,0.169,0.214,0.23,0.325c0.146,0.141,0.296,0.301,0.45,0.488c3.699,4.488,7.456,8.932,11.036,13.514
		c0.718,0.919,1.053,2.369,1.057,3.577c0.03,8.404-0.197,16.811-0.078,25.213c0.009,0.627-0.034,1.182-0.117,1.684
		c0.182,3.057,0.357,6.086,0.062,9.113c0.017,0.335,0.025,0.684,0.019,1.059c-0.417,23.273-1.033,46.558-0.613,69.821
		c0.136,7.512-1.915,12.895-7.051,17.876c-5.038,4.885-9.695,10.163-14.52,15.269c-0.383-0.111-0.766-0.222-1.149-0.333v-70.804
		c-0.489-0.028-0.977-0.055-1.466-0.083c-0.156,1.973-0.438,3.945-0.448,5.919c-0.103,21.574-0.236,43.148-0.19,64.722
		c0.013,5.927-3.509,9.138-7.995,12.609c-0.161-2.076-0.269-3.473-0.422-5.437h-11.924V359.312
		c4.314,4.483,7.54,9.108,10.674,13.795c14.608,21.841,29.171,43.711,43.814,65.527c1.291,1.923,3.046,3.534,4.586,5.289
		c0.681-0.322,1.361-0.643,2.042-0.965C453.713,439.47,454.255,435.416,452.648,432.58z M254.477,322.201
		c-2.263-1.297-3.501-1.847-4.561-2.637c-16.233-12.105-32.511-24.154-48.568-36.489c-1.861-1.429-3.321-4.423-3.498-6.8
		c-0.478-6.426-0.164-12.912-0.164-21.064c7.418,6.055,13.697,11.071,19.856,16.23c11.672,9.775,23.32,19.581,34.842,29.533
		c1.175,1.015,1.92,3.083,2,4.705C254.636,310.773,254.477,315.888,254.477,322.201z M293.494,330.387c1.582,0,3.165,0.001,4.747,0
		c28.546-0.012,57.093-0.029,85.639-0.033c6.424-0.001,7.054,0.487,6.983,6.879c-0.172,15.674,2.356,13.163-12.79,13.272
		c-19.462,0.14-38.927,0.134-58.387-0.114c-2.624-0.033-5.639-1.3-7.761-2.926c-6.521-4.997-12.696-10.446-19.006-15.719
		C293.112,331.293,293.303,330.84,293.494,330.387z M256.629,319.595c0.613-4.264,0.14-8.684,0.14-13.037
		c0.451-0.307,0.903-0.614,1.354-0.92c23.275,19.54,46.55,39.079,69.825,58.619c-0.189-1.243,0.067-2.937-0.651-3.644
		c-2.145-2.113-4.672-3.84-8.205-6.63c3.671-0.444,5.969-0.953,8.27-0.964c18.006-0.084,36.013-0.167,54.018-0.049
		c8.74,0.057,8.826,0.324,8.811,9.198c-0.081,48.504-0.188,97.008-0.252,145.512c-0.036,27.225-0.007,54.45-0.007,81.877H377.63
		c0-2.62-0.027-4.844,0.005-7.066c0.099-6.8-0.38-7.304-6.989-7.304c-3.406,0-6.813,0.011-10.219-0.045
		c-3.592-0.059-5.646-1.54-4.576-5.468c1.006-3.693-1.242-4.307-3.981-4.15c-9.552,0.549-19.515-2.316-28.935,4.766
		c-0.369-3.025-0.753-4.696-0.751-6.366c0.043-54.019,0.102-108.038,0.233-162.057c0.012-5.017,0.519-10.033,0.805-15.048
		c0.037-0.646-0.099-1.704,0.218-1.874c9.623-5.162,2.845-13.865,4.524-20.714c-1.089,3.311-2.179,6.622-3.441,10.458
		c-1.422-0.943-3.294-2.072-5.046-3.363c-19.706-14.522-39.377-29.09-59.103-43.584
		C257.534,325.654,256.071,323.476,256.629,319.595z M295.009,610.583c10.15-5.374,20.207-10.947,30.554-15.914
		c3.345-1.606,7.447-1.982,11.244-2.198c3.827-0.217,7.705,0.464,12.96,0.857c-10.828,7.237-20.589,13.799-30.413,20.266
		c-0.881,0.58-2.163,0.762-3.261,0.77c-8.396,0.061-16.793,0.034-25.644-0.992C291.967,612.437,293.438,611.415,295.009,610.583z
		 M290.345,609.011c-2.043-6.847-1.596-8.117,4.049-10.767c11.214-5.264,22.477-10.426,34.071-15.794
		c0.988,4.027,0.792,7.101-2.893,9.02c-10.878,5.664-21.762,11.317-32.663,16.937C292.239,608.753,291.401,608.773,290.345,609.011z
		 M335.308,579.217c5.552-2.534,11.063-5.158,16.591-7.744c0.525,0.37,1.049,0.74,1.574,1.109c-0.95,1.743-1.463,4.183-2.929,5.105
		c-5.567,3.498-11.443,6.504-17.578,9.902C331.449,583.663,331.505,580.953,335.308,579.217z M325.099,613.223
		c8.847-5.947,17.709-11.871,27.246-18.261c1.46,5.442,1.772,9.839-2.226,12.917c-9.739,7.496-19.693,14.712-29.648,22.106
		C317.528,622.437,319.012,617.315,325.099,613.223z M336.545,589.179c10.851-5.688,20.679-14.659,34.467-10.975
		C364.567,587.089,353.124,590.933,336.545,589.179z M362.479,588.102c3.478-1.507,6.474-4.124,9.675-6.233
		c3.33,4.935,3.079,7.304-1.025,10.4c-4.451,3.357-8.977,6.614-13.95,10.267C355.323,595.517,356.088,590.871,362.479,588.102z
		 M319.282,377.015c-20.795-15.212-41.551-30.476-62.298-45.753c-0.756-0.557-1.341-1.345-2.002-2.032
		c1.788,0.319,3.971,0.108,5.278,1.077c20.827,15.443,41.539,31.04,62.269,46.614c0.367,0.276,0.627,0.693,0.633,1.815
		C321.861,378.173,320.397,377.831,319.282,377.015z M347.671,568.557c-7.823,6.39-16.91,8.53-33.5,7.483
		C325.718,571.409,335.622,565.432,347.671,568.557z M304.987,580.049c5.766-1.847,12.616-0.309,20.342-0.309
		c-12.652,6.034-24.052,11.69-35.676,16.837c-2.421,1.072-5.676,0.293-8.547,0.307c-5.157,0.026-10.315,0.007-15.473,0.007
		c-0.085-0.432-0.169-0.863-0.254-1.295C278.548,590.312,291.507,584.368,304.987,580.049z M282.756,581.677
		c-0.055,1.812-1.476,4.568-2.976,5.199c-17.182,7.218-34.499,14.114-51.791,21.071c-0.708,0.285-1.516,0.317-3.382,0.685
		c0.719-76.512,1.433-152.517,2.158-229.718c7.048,3.24,12.775,5.752,18.397,8.482c11.221,5.448,22.3,11.196,33.617,16.434
		c4.066,1.882,5.203,4.415,5.163,8.667c-0.433,46.505-0.709,93.011-1.005,139.517C282.874,561.902,283.056,571.797,282.756,581.677z
		 M86.74,301.292c0.341-5.332,0.026-10.703,0.142-16.053c0.041-1.874,0.505-3.738,0.896-6.433c2.166,0.966,3.766,1.533,5.224,2.351
		c61.923,34.774,123.83,69.578,185.748,104.359c13.949,7.836,13.967,7.805,13.956,23.633c-0.016,21.898,0.073,43.797-0.074,65.694
		c-0.231,34.216-0.663,68.431-0.894,102.647c-0.027,4.073-1.143,6.564-6.135,6.507c-0.104-1.642-0.287-3.193-0.286-4.745
		c0.012-28.71-0.068-57.422,0.108-86.131c0.166-27.218,0.472-54.437,1.032-81.65c0.114-5.56-1.876-8.372-6.861-10.693
		c-38.358-17.861-76.61-35.951-114.847-54.071c-23.594-11.18-47.055-22.644-70.692-33.73
		C88.777,310.504,86.366,307.131,86.74,301.292z M90.96,663.735c-1.903,0.767-3.886,1.335-7.117,2.432
		c0.971-118.502,1.931-235.783,2.899-353.983c7.244,3.393,13.523,6.292,19.766,9.267c37.918,18.071,75.814,36.191,113.768,54.187
		c3.18,1.508,4.294,2.9,3.924,6.853c-0.644,6.886,0.312,13.906,0.265,20.867c-0.228,33.894-0.545,67.788-0.873,101.682
		c-0.323,33.407-0.759,66.813-0.965,100.22c-0.024,3.927-1.529,5.698-5.027,7.102c-24.079,9.669-48.072,19.555-72.109,29.329
		C127.33,649.076,109.146,656.408,90.96,663.735z M183.536,644.205c-11.483,0.281-22.977,0.104-34.467,0.104
		c-0.078-0.577-0.156-1.154-0.235-1.731c19.97-8.027,39.946-16.038,59.907-24.087c12.02-4.848,24.146-9.466,35.973-14.75
		c6.724-3.005,13.439-4.323,20.717-3.902c5.161,0.298,10.353,0.058,15.839,0.894c-4.366,2.151-8.703,4.361-13.102,6.443
		c-24.598,11.641-49.171,23.336-73.866,34.767C191.047,643.449,187.156,644.116,183.536,644.205z M192.125,647.857
		c0.186-1.412,2.321-2.979,3.917-3.731c20.511-9.658,41.089-19.174,61.643-28.74c7.635-3.553,15.246-7.158,22.885-10.703
		c1.71-0.793,3.49-1.435,5.65-2.315c1.458,8.928,1.315,9.084-5.489,12.645c-27.261,14.27-54.496,28.592-81.752,42.872
		c-1.945,1.019-3.984,1.858-7.041,3.272C191.938,656.052,191.594,651.897,192.125,647.857z M239.88,666.522
		c-15.788,0.168-31.578,0.102-47.367,0.102c-0.083-0.528-0.166-1.057-0.249-1.585c2.744-1.551,5.453-3.167,8.237-4.643
		c23.604-12.517,47.435-24.626,70.738-37.679c10.575-5.924,21.445-6.464,32.835-5.82c2.564,0.145,5.117,0.488,9.138,0.884
		c-10.206,6.959-19.257,13.16-28.339,19.315c-13.406,9.085-26.822,18.156-40.27,27.178
		C243.155,665.244,241.468,666.505,239.88,666.522z M242.551,688.298c0-6.549-0.37-11.751,0.183-16.854
		c0.221-2.035,2.073-4.449,3.875-5.671c21.865-14.833,43.856-29.482,65.834-44.149c1.012-0.675,2.212-1.068,3.353-1.607
		c2.389,6.674,0.86,12.863-4.018,16.676c-5.999,4.69-12.031,9.338-18.11,13.924c-15.186,11.458-30.399,22.88-45.626,34.284
		C246.677,685.924,245.135,686.711,242.551,688.298z M356.419,655.614c-15.674,17.452-30.869,35.335-46.25,53.051
		c-0.504,0.58-1.046,1.127-2.29,2.462c0-6.346-0.286-11.775,0.162-17.142c0.149-1.781,2.194-3.398,3.354-5.102
		c0.982-1.443,1.939-2.904,2.906-4.358c-4.701,4.495-10.42,4.922-16.595,4.799c-14.573-0.29-29.155-0.109-43.733-0.119
		c-1.726-0.001-3.452,0-5.557-1.03c5.09-3.836,10.159-7.702,15.274-11.503c16.25-12.074,32.571-24.053,48.733-36.244
		c3.299-2.488,6.606-3.562,10.712-3.484c10.807,0.206,21.622,0.07,32.433,0.07c0.217,0.581,0.434,1.161,0.652,1.741
		c-1.87,2.238-3.619,4.592-5.629,6.696c-10.852,11.356-21.793,22.627-32.634,33.994c-1.411,1.479-2.418,3.344-3.612,5.03
		c8.711-8.651,17.317-17.413,26.17-25.917c6.28-6.033,12.893-11.718,19.177-17.395C359.694,645.523,360.947,650.572,356.419,655.614
		z M357.464,634.648c-10.85,0.221-21.709,0.026-32.565-0.05c-0.945-0.007-1.889-0.083-4.143-0.189
		c3.509-2.654,6.127-4.661,8.773-6.629c7.8-5.801,15.578-11.633,23.448-17.338c1.517-1.099,3.396-2.333,5.138-2.38
		c8.868-0.24,17.746-0.111,27.819-0.111c-5.706,6.141-10.493,11.391-15.422,16.502c-0.82,0.85-2.227,1.437-3.424,1.561
		c-3.283,0.339-4.548,2.32-5.64,5.164C360.872,632.678,358.861,634.62,357.464,634.648z M384.379,623.134
		c-7.146,7.842-13.958,15.987-22.027,23.884c0-3.391-0.24-6.811,0.165-10.152c0.104-0.86,2.247-2.097,3.44-2.082
		c3.296,0.041,4.797-1.083,4.773-4.507c-0.011-1.521,0.344-3.487,1.316-4.498c4.905-5.097,10.069-9.947,15.472-15.204
		C388.845,615.802,387.643,619.552,384.379,623.134z M401.243,595.576c2.137,5.746-0.641,10.614-10.32,18.836
		C388.262,604.28,396.779,601.427,401.243,595.576z M398.955,593.611c-5.151,7.014-9.628,13.606-19.836,12.033
		c-5.92-0.912-12.096-0.166-18.308-0.166C371.034,592.976,384.105,591.217,398.955,593.611z M450.443,438.04
		c-1.231-1.705-2.582-3.337-3.672-5.128c-4.284-7.038-8.323-14.231-12.794-21.147c-1.955-3.024-5.04-5.305-7.081-8.287
		c-9.346-13.649-17.91-27.88-27.941-40.994c-6.47-8.459-5.937-17.185-5.324-27.83c19.744,34.921,40.124,68.028,58.47,102.281
		C451.547,437.304,450.995,437.672,450.443,438.04z"/>
	<path d="M453.24,538.234"/>
	<path d="M450.204,541.438c-0.005,0.287-0.011,0.574-0.016,0.861"/>
	<path fill="#FFFFFF" d="M997.688,212.389"/>
	<path fill="#FFFFFF" d="M755.298,133.54c71.711,0,143.422,0,215.133,0c-7.74,5.883-15.503,11.734-23.215,17.653
		c-61.865,47.486-123.719,94.987-185.588,142.468c-1.318,1.011-2.78,1.835-4.816,3.166c-0.46-11.142-1.205-21.3-1.24-31.46
		c-0.132-38.597-0.024-77.196-0.033-115.794C755.538,144.228,755.382,138.884,755.298,133.54z"/>
	<path fill="#FFFFFF" d="M0.872,735.133c4.677-2.142,9.369-4.253,14.03-6.431c26.741-12.496,53.468-25.02,80.211-37.513
		c27.771-12.973,55.551-25.926,83.335-38.871c3.206-1.494,6.461-2.88,9.7-4.318c3.416,8.534,1.495,14.962-5.925,18.921
		c-25.183,13.437-50.462,26.695-75.69,40.046c-32.971,17.448-65.935,34.908-98.875,52.414c-2.093,1.112-3.949,2.67-5.915,4.021
		c0.338,0.511,0.676,1.022,1.015,1.533c1.711-0.974,3.398-1.994,5.138-2.915c54.891-29.079,109.849-58.034,164.617-87.343
		c8.161-4.367,16.417-6.488,25.492-6.434c12.47,0.075,24.94,0.019,37.411,0.019c0.181,0.567,0.362,1.135,0.543,1.702
		c-1.545,1.154-3.041,2.38-4.642,3.45c-33.581,22.438-67.24,44.758-100.745,67.308c-36.865,24.811-73.59,49.831-110.376,74.759
		c-0.269,0.182-0.519,0.424-0.817,0.525c-10.223,3.456-11.527,11.171-9.744,20.366c-2.92,0-5.841,0-8.761,0
		C0.872,802.626,0.872,768.88,0.872,735.133z"/>
	<path fill="#FFFFFF" d="M49.545,836.372c18.395-13.835,36.735-27.744,55.196-41.49c44.743-33.312,89.508-66.595,134.403-99.701
		c2.758-2.034,6.707-3.352,10.134-3.424c16.697-0.351,33.406-0.172,50.11-0.155c1.701,0.002,3.401,0.178,5.934,0.32
		c-1.312,1.739-1.959,2.81-2.806,3.688c-19.705,20.411-39.516,40.719-59.133,61.214c-24.55,25.649-48.946,51.445-73.392,77.193
		c-0.658,0.693-1.128,1.566-1.686,2.355C128.719,836.372,89.132,836.372,49.545,836.372z"/>
	<path fill="#FFFFFF" d="M760.165,836.372c-7.682-9.834-15.455-19.599-22.98-29.553c-1.814-2.399-2.792-5.427-4.18-8.153
		c-0.208-0.407-0.486-0.857-0.856-1.092c-11.472-7.292-16.072-20.211-25.326-29.312c0.237-0.448,0.473-0.897,0.71-1.345
		c1.657-0.131,3.313-0.375,4.97-0.376c33.076-0.014,66.152,0.022,99.228-0.007c7.073-0.006,13.032,1.617,18.883,6.481
		c24.052,19.996,48.644,39.343,73.008,58.964c1.627,1.31,3.011,2.921,4.508,4.392C858.809,836.372,809.487,836.372,760.165,836.372z
		"/>
	<path d="M997.688,209.469c0,0.973,0,1.947,0,2.92"/>
	<path fill="#FFFFFF" d="M254.948,329.194c-9.579-6.915-19.229-13.734-28.724-20.761c-42.756-31.643-85.464-63.353-128.199-95.025
		c-29.967-22.209-59.934-44.42-89.965-66.543c-2.125-1.565-4.779-2.41-7.187-3.59c0-3.245,0-6.49,0-9.735
		c17.522,0,35.044,0,52.566,0c11.635,9.82,23.257,19.655,34.906,29.457c34.613,29.123,69.264,58.201,103.774,87.445
		c1.692,1.434,2.956,4.236,3.09,6.481c0.402,6.731,0.145,13.502,0.145,21.939c-64.961-48.601-128.68-96.273-192.399-143.945
		c-0.395,0.422-0.789,0.843-1.184,1.265c0.99,0.998,1.871,2.141,2.985,2.973c47.69,35.601,95.414,71.157,143.103,106.759
		c33.527,25.029,67.046,50.068,100.446,75.266c2.696,2.034,4.437,5.332,6.622,8.043L254.948,329.194z"/>
	<path fill="#FFFFFF" d="M11.58,836.372c-1.566-8.855,2.611-14.135,9.857-18.959c43.295-28.82,86.307-58.068,129.431-87.145
		c27.943-18.841,55.916-37.639,83.879-56.449c1.446-0.973,2.935-1.881,5.2-3.328c0,7.026,0.207,13.236-0.173,19.41
		c-0.077,1.252-2.285,2.473-3.65,3.529c-8.822,6.825-17.63,13.67-26.54,20.38c-27.919,21.025-55.847,42.037-83.836,62.968
		c-24.908,18.627-49.909,37.13-74.844,55.721c-1.536,1.145-2.858,2.576-4.28,3.873C34.943,836.372,23.262,836.372,11.58,836.372z"/>
	<path fill="#FFFFFF" d="M729.988,133.54c0.011,48.326,0.034,96.651,0.026,144.977c-0.002,12.127-0.116,24.254-0.144,36.381
		c-0.006,2.728-0.999,4.094-3.996,4.233c-3.918,0.181-7.812,0.886-12.069,1.408c-0.011-0.14-0.192-1.532-0.216-2.927
		c-0.292-16.654-0.727-33.307-0.784-49.962c-0.046-13.424,0.477-26.85,0.547-40.276c0.055-10.523-0.234-21.046-0.288-31.57
		c-0.016-3.065,0.462-6.142,0.296-9.191c-0.077-1.413-1.154-2.771-1.777-4.154c-1.304,0.789-3.049,1.273-3.84,2.416
		c-5.344,7.734-10.442,15.637-15.699,23.432c-27.924,41.409-55.87,82.802-83.814,124.197c-0.529,0.784-1.129,1.521-1.746,2.348
		c-2.145-3.428-2.127-4.574,0.486-8.707c8.753-13.841,17.532-27.666,26.339-41.473c31.388-49.213,62.794-98.415,94.166-147.638
		c0.676-1.061,1.034-2.325,1.54-3.494C729.339,133.54,729.664,133.54,729.988,133.54z"/>
	<path fill="#FFFFFF" d="M170.253,836.372c44.63-46.717,89.26-93.433,134.819-141.122c0.142,10.342,1.201,18.494-5.923,26.544
		c-32.555,36.785-64.344,74.248-96.397,111.477c-0.841,0.976-1.551,2.065-2.322,3.102
		C190.371,836.372,180.312,836.372,170.253,836.372z"/>
	<path fill="#FFFFFF" d="M726.095,133.54c-8.422,13.473-16.748,27.007-25.284,40.407c-26.057,40.903-52.194,81.755-78.309,122.621
		c-1.301,2.035-2.683,4.018-4.934,5.618c2.053-4.707,4.036-9.445,6.171-14.114c9.102-19.911,17.75-40.053,27.556-59.613
		c6.522-13.008,14.75-25.159,22.167-37.721c10.473-17.738,20.909-35.498,31.333-53.265c0.729-1.242,1.226-2.619,1.831-3.933
		C713.115,133.54,719.605,133.54,726.095,133.54z"/>
	<path fill="#FFFFFF" d="M502.201,836.372c-11.032,0-22.065,0-33.097,0c0.734-10.82,1.341-21.651,2.236-32.458
		c1.081-13.065,2.463-26.105,3.582-39.168c0.262-3.06,1.571-4.268,4.609-4.182c5.183,0.146,10.374,0.175,15.557,0.054
		c3.481-0.082,4.895,1.278,4.959,4.849c0.208,11.497,0.67,22.989,1.028,34.484C501.454,812.091,501.826,824.232,502.201,836.372z"/>
	<path d="M970.431,133.54c-7.74,5.883-15.503,11.734-23.215,17.653c-61.865,47.486-123.719,94.987-185.588,142.468
		c-1.318,1.011-2.78,1.835-4.816,3.166c-0.46-11.142-1.205-21.3-1.24-31.46c-0.132-38.597-0.024-77.196-0.033-115.794
		c-0.001-5.344-0.157-10.688-0.241-16.033h-1.947c0.251,8.261,0.744,16.522,0.709,24.782c-0.124,29.971-0.533,59.941-0.612,89.912
		c-0.04,15.396,0.309,30.796,0.677,46.189c0.061,2.562-0.36,4.787-1.849,6.372c0.497,0.418,0.93,0.919,1.272,1.505
		c17.665-13.161,34.968-26.807,52.473-40.184c53.735-41.06,107.505-82.075,161.238-123.139c2.156-1.648,4.066-3.618,6.091-5.437
		H970.431z"/>
	<path fill="#FFFFFF" d="M731.935,836.372c-2.648-4.019-5.222-8.088-7.959-12.044c-4.235-6.122-8.368-12.334-12.953-18.188
		c-3.197-4.082-4.444-8.446-4.334-13.485c0.13-5.964,0.031-11.932,0.031-18.068c6.17,2.681,18.736,20.582,17.795,23.094
		c2.98,2.689,5.932,4.736,8.102,7.418c8.346,10.315,16.441,20.832,24.629,31.274C748.808,836.372,740.372,836.372,731.935,836.372z"
		/>
	<path d="M502.201,836.372c-0.375-12.14-0.747-24.281-1.125-36.421c-0.358-11.494-0.82-22.987-1.028-34.484
		c-0.065-3.571-1.478-4.931-4.959-4.849c-5.183,0.121-10.374,0.092-15.557-0.054c-3.039-0.086-4.347,1.122-4.609,4.182
		c-1.119,13.062-2.501,26.102-3.582,39.168c-0.894,10.807-1.501,21.638-2.236,32.458c-0.973,0-1.947,0-2.92,0
		c1.392-16.622,2.81-33.242,4.165-49.868c0.605-7.427,1.355-14.859,1.519-22.3c0.102-4.602,2.049-6.524,6.386-6.545
		c6.325-0.031,12.65-0.103,18.975-0.049c2.849,0.024,5.124,0.929,5.203,4.404c0.562,24.786,1.143,49.572,1.717,74.359
		C503.498,836.372,502.849,836.372,502.201,836.372z"/>
	<path d="M498.585,685.27c0.937,9.981,0.937,9.981-8.934,10.089c-11.51,0.126-11.579,0.122-10.918-11.432
		c0.424-7.422,1.22-14.824,1.588-22.248c0.185-3.745,1.583-5.293,5.408-4.63c1.731,0.3,3.555,0.07,5.336,0.065
		c7.508-0.022,7.512-0.024,7.519,7.781C498.59,671.688,498.585,678.479,498.585,685.27z M496.348,676.171c-0.081,0-0.162,0-0.243,0
		c0-3.876-0.129-7.758,0.036-11.628c0.169-3.958-2.17-4.669-5.273-4.329c-3.089,0.339-7.601-2.032-7.865,4.068
		c-0.265,6.124-0.88,12.234-1.144,18.358c-0.452,10.481-0.32,10.464,10.271,9.709c3.117-0.222,4.297-1.581,4.237-4.548
		C496.289,683.926,496.348,680.048,496.348,676.171z"/>
	<path d="M495.69,585.159c0,1.134-0.039,2.271,0.008,3.403c0.113,2.755,0.843,5.719-3.713,5.538
		c-3.745-0.149-6.942-0.425-6.579-5.44c0.233-3.23,0.217-6.478,0.35-9.716c0.141-3.443,1.944-4.825,5.38-4.616
		c3.296,0.2,4.61,1.852,4.511,4.996c-0.061,1.943-0.011,3.89-0.011,5.835C495.653,585.159,495.671,585.159,495.69,585.159z
		 M493.027,577.569c-0.619-0.035-1.239-0.069-1.858-0.104c-1.649,1.472-3.813,10.509-2.722,12.165
		c0.422,0.64,1.665,1.287,2.299,1.106c0.877-0.25,2.135-1.243,2.179-1.981C493.147,585.038,493.027,581.3,493.027,577.569z"/>
	<path fill="#FFFFFF" d="M327.948,364.258c-0.189-1.243,0.067-2.937-0.651-3.644c-2.145-2.113-4.672-3.839-8.205-6.63
		c3.671-0.444,5.969-0.953,8.27-0.964c18.006-0.084,36.013-0.167,54.018-0.049c8.74,0.057,8.826,0.324,8.811,9.198
		c-0.081,48.504-0.188,97.008-0.252,145.512c-0.036,27.225-0.006,54.45-0.006,81.877c-4.802,0-8.426,0-12.302,0
		c0-2.62-0.027-4.844,0.005-7.066c0.099-6.8-0.38-7.304-6.989-7.304c-3.406,0-6.813,0.011-10.219-0.045
		c-3.592-0.059-5.646-1.54-4.576-5.468c1.006-3.693-1.242-4.307-3.981-4.15c-9.552,0.548-19.515-2.316-28.935,4.766
		c-0.369-3.025-0.753-4.696-0.751-6.366c0.043-54.019,0.102-108.038,0.233-162.057c0.012-5.017,0.519-10.033,0.805-15.048
		c0.037-0.646-0.099-1.704,0.218-1.874c9.623-5.162,2.845-13.865,4.524-20.714L327.948,364.258z"/>
	<path fill="#FFFFFF" d="M613.417,406.866c0-3.131-0.001-4.859,0-6.587c0.013-19.453-0.057-38.908,0.144-58.359
		c0.025-2.409,0.979-5.163,2.368-7.151c27.587-39.485,55.286-78.893,83.015-118.28c3.248-4.613,6.802-9.011,11.14-14.729
		c0.145,3.058,0.3,4.839,0.303,6.62c0.07,36.34-0.055,72.682,0.357,109.018c0.068,5.954-1.445,9.632-6.079,13.433
		c-27.206,22.317-54.098,45.017-81.097,67.585C620.596,400.901,617.615,403.373,613.417,406.866z"/>
	<path fill="#FFFFFF" d="M817.795,763.783c-2.143,0.129-3.541,0.287-4.939,0.287c-34.531,0.012-69.062-0.033-103.593,0.064
		c-3.68,0.01-6.536-0.816-8.874-3.822c-17.015-21.877-34.108-43.693-51.165-65.537c-0.288-0.368-0.439-0.842-0.969-1.887
		c1.826-0.12,3.33-0.313,4.831-0.302c24.955,0.172,49.91,0.328,74.863,0.653c1.749,0.023,3.763,0.989,5.178,2.114
		c27.281,21.68,54.494,43.445,81.7,65.22C815.767,761.322,816.484,762.348,817.795,763.783z"/>
	<path fill="#FFFFFF" d="M285.603,583.999c-0.103-1.642-0.287-3.193-0.286-4.745c0.012-28.71-0.068-57.422,0.108-86.131
		c0.166-27.218,0.472-54.437,1.032-81.65c0.114-5.56-1.876-8.372-6.861-10.693c-38.358-17.861-76.61-35.951-114.847-54.071
		c-23.594-11.18-47.055-22.644-70.692-33.73c-5.279-2.476-7.69-5.849-7.316-11.688c0.341-5.332,0.026-10.703,0.142-16.053
		c0.041-1.874,0.505-3.738,0.896-6.433c2.166,0.966,3.766,1.533,5.224,2.351c61.923,34.774,123.83,69.578,185.748,104.359
		c13.949,7.836,13.967,7.805,13.956,23.633c-0.016,21.898,0.073,43.797-0.074,65.694c-0.231,34.216-0.663,68.431-0.894,102.647
		C291.71,581.564,290.594,584.056,285.603,583.999z"/>
	<path fill="#FFFFFF" d="M718.827,323.332c3.247,11.18,6.363,21.39,9.018,31.719c0.323,1.256-1.461,3.765-2.907,4.659
		c-24.826,15.344-49.738,30.55-74.663,45.733c-14.538,8.856-29.128,17.627-43.711,26.409c-1.341,0.808-2.8,1.42-5.054,2.548
		c-1.047-3.988-2.153-7.326-2.683-10.752c-0.158-1.022,1.054-2.585,2.046-3.408c37.797-31.373,75.64-62.691,113.494-93.995
		C715.446,325.351,716.723,324.694,718.827,323.332z"/>
	<path fill="#FFFFFF" d="M612.234,647.804c3.911,0,6.615-0.001,9.32,0c16.035,0.005,32.07-0.052,48.103,0.091
		c2.127,0.019,4.707,0.47,6.295,1.718c16.294,12.802,32.428,25.808,48.595,38.772c0.34,0.273,0.542,0.719,1.092,1.475
		c-1.735,0.092-3.122,0.23-4.508,0.23c-23.323,0.002-46.646-0.091-69.968,0.044c-4.319,0.025-7.26-1.445-9.877-4.855
		c-8.675-11.303-17.597-22.417-26.41-33.614C614.196,650.801,613.627,649.848,612.234,647.804z"/>
	<path fill="#FFFFFF" d="M314.301,684.525c-4.701,4.495-10.42,4.922-16.595,4.799c-14.573-0.29-29.155-0.109-43.733-0.119
		c-1.726-0.001-3.452,0-5.557-1.03c5.09-3.836,10.159-7.702,15.274-11.503c16.25-12.074,32.572-24.053,48.733-36.244
		c3.299-2.488,6.606-3.562,10.711-3.484c10.808,0.206,21.622,0.07,32.433,0.07c0.217,0.58,0.434,1.161,0.652,1.741
		c-1.87,2.238-3.618,4.592-5.629,6.696c-10.852,11.356-21.793,22.627-32.634,33.994c-1.411,1.479-2.418,3.344-3.612,5.03
		C314.344,684.476,314.301,684.525,314.301,684.525z"/>
	<path fill="#FFFFFF" d="M586.829,546.722c-9.305-2.322-18.6-8.575-25.017-14.193c-11.686-10.23-7.311-27.667-5.221-41.239
		c0.096-0.621,0.276-1.154,0.49-1.648c-0.425-0.884-0.683-1.858-0.728-2.86c-0.707-15.986,14.339-19.618,26.575-23.541
		c1.268-0.407,2.637-0.313,3.898,0.136c-0.021-1.324-0.047-2.648-0.068-3.972c-1.478-1.629-1.984-3.976-1.631-6.354
		c0.315-2.117,1.019-3.999,2.021-5.663c0.303-0.683,0.721-1.265,1.222-1.751c2.075-2.571,4.945-4.505,8.18-5.865
		c-0.046-0.308-0.093-0.606-0.135-0.927c-1.819,0.78-2.91,1.092-3.835,1.669c-11.415,7.11-22.741,14.366-34.244,21.331
		c-3.368,2.039-4.484,4.565-4.46,8.344c0.092,14.355-0.063,28.711-0.1,43.066c-0.028,10.83-0.093,21.662,0.065,32.49
		c0.023,1.546,0.846,3.45,1.944,4.536c2.519,2.493,5.424,4.598,8.193,6.835c11.193,9.043,22.393,18.077,33.59,27.114
		c0,0,0.074-0.061,0.074-0.061c-0.062-0.813-0.152-1.627-0.225-2.44C587.285,572.958,586.531,559.704,586.829,546.722z"/>
	<path fill="#FFFFFF" d="M313.212,617.779c-10.207,6.959-19.257,13.16-28.339,19.315c-13.406,9.085-26.821,18.156-40.27,27.178
		c-1.448,0.971-3.135,2.233-4.723,2.249c-15.788,0.168-31.578,0.102-47.367,0.102c-0.083-0.529-0.166-1.057-0.249-1.585
		c2.744-1.551,5.453-3.167,8.237-4.643c23.604-12.517,47.435-24.626,70.738-37.679c10.575-5.924,21.445-6.464,32.835-5.82
		C306.638,617.041,309.19,617.383,313.212,617.779z"/>
	<path fill="#FFFFFF" d="M293.494,330.387c1.582,0,3.165,0.001,4.747,0c28.546-0.012,57.093-0.029,85.639-0.033
		c6.424-0.001,7.053,0.487,6.983,6.879c-0.173,15.674,2.356,13.163-12.79,13.272c-19.462,0.14-38.927,0.134-58.387-0.114
		c-2.624-0.033-5.639-1.3-7.761-2.926c-6.521-4.997-12.696-10.446-19.006-15.719C293.112,331.293,293.303,330.84,293.494,330.387z"
		/>
	<path fill="#FFFFFF" d="M148.835,642.578c19.97-8.027,39.946-16.038,59.907-24.087c12.02-4.848,24.146-9.466,35.973-14.75
		c6.724-3.005,13.439-4.323,20.717-3.902c5.161,0.298,10.353,0.058,15.839,0.894c-4.366,2.151-8.703,4.361-13.102,6.443
		c-24.598,11.641-49.171,23.336-73.866,34.767c-3.256,1.507-7.146,2.174-10.766,2.263c-11.483,0.281-22.977,0.104-34.467,0.104
		C148.991,643.732,148.913,643.155,148.835,642.578z"/>
	<path fill="#FFFFFF" d="M702.529,794.034c-8.394-11.67-16.796-23.335-25.18-35.013c-7.651-10.656-14.645-21.868-23.112-31.83
		c-7.586-8.926-8.962-18.523-7.201-30.241c1.715,2.004,3.153,3.569,4.463,5.234c16.33,20.74,32.726,41.43,48.845,62.334
		c1.903,2.468,2.951,6.08,3.182,9.251c0.48,6.585,0.145,13.229,0.145,19.849C703.29,793.757,702.909,793.896,702.529,794.034z"/>
	<path fill="#FFFFFF" d="M197.685,255.211c7.418,6.055,13.697,11.071,19.856,16.23c11.672,9.775,23.32,19.581,34.842,29.533
		c1.175,1.015,1.92,3.083,2,4.705c0.253,5.095,0.093,10.21,0.093,16.522c-2.263-1.297-3.501-1.847-4.561-2.637
		c-16.234-12.105-32.511-24.154-48.568-36.489c-1.861-1.429-3.321-4.423-3.498-6.8C197.371,269.848,197.685,263.363,197.685,255.211
		z"/>
	<path fill="#FFFFFF" d="M242.551,688.298c0-6.549-0.37-11.751,0.183-16.854c0.22-2.035,2.073-4.449,3.875-5.671
		c21.865-14.833,43.856-29.482,65.834-44.149c1.012-0.675,2.212-1.068,3.353-1.607c2.389,6.674,0.86,12.863-4.018,16.676
		c-5.999,4.69-12.031,9.338-18.11,13.924c-15.186,11.458-30.4,22.88-45.626,34.284C246.677,685.924,245.135,686.711,242.551,688.298
		z"/>
	<path fill="#FFFFFF" d="M286.22,602.368c1.458,8.928,1.315,9.084-5.489,12.645c-27.261,14.27-54.496,28.592-81.752,42.872
		c-1.945,1.019-3.985,1.858-7.041,3.272c0-5.105-0.344-9.261,0.187-13.301c0.186-1.412,2.321-2.979,3.917-3.731
		c20.511-9.658,41.089-19.174,61.643-28.74c7.635-3.553,15.246-7.158,22.885-10.703C282.28,603.89,284.06,603.248,286.22,602.368z"
		/>
	<path fill="#FFFFFF" d="M327.965,364.231c-1.089,3.311-2.179,6.622-3.441,10.458c-1.422-0.943-3.294-2.072-5.046-3.363
		c-19.706-14.522-39.377-29.09-59.103-43.584c-2.841-2.087-4.304-4.265-3.746-8.146c0.613-4.264,0.14-8.684,0.14-13.037
		c0.451-0.307,0.903-0.614,1.354-0.92c23.275,19.54,46.55,39.079,69.825,58.619C327.948,364.258,327.965,364.231,327.965,364.231z"
		/>
	<path fill="#FFFFFF" d="M385.934,607.953c-5.706,6.141-10.493,11.391-15.422,16.502c-0.82,0.85-2.227,1.437-3.424,1.561
		c-3.283,0.339-4.548,2.32-5.64,5.165c-0.575,1.498-2.586,3.44-3.983,3.468c-10.85,0.221-21.709,0.026-32.565-0.05
		c-0.945-0.007-1.889-0.083-4.143-0.189c3.509-2.654,6.127-4.661,8.773-6.629c7.8-5.801,15.578-11.633,23.448-17.338
		c1.517-1.099,3.396-2.333,5.138-2.38C366.983,607.823,375.861,607.953,385.934,607.953z"/>
	<path fill="#FFFFFF" d="M314.344,684.476c8.711-8.651,17.317-17.413,26.17-25.917c6.28-6.033,12.893-11.718,19.177-17.395
		c0.003,4.359,1.256,9.409-3.272,14.451c-15.674,17.452-30.869,35.335-46.25,53.051c-0.504,0.58-1.046,1.127-2.29,2.462
		c0-6.346-0.286-11.775,0.162-17.142c0.149-1.781,2.194-3.398,3.354-5.102c0.982-1.443,1.939-2.904,2.906-4.358
		C314.301,684.525,314.344,684.476,314.344,684.476z"/>
	<path fill="#FFFFFF" d="M393.629,334.655c19.744,34.922,40.124,68.028,58.47,102.281c-0.552,0.368-1.104,0.736-1.657,1.104
		c-1.231-1.705-2.582-3.337-3.672-5.128c-4.284-7.038-8.323-14.231-12.794-21.147c-1.955-3.024-5.04-5.305-7.081-8.287
		c-9.346-13.649-17.91-27.88-27.941-40.994C392.483,354.026,393.017,345.3,393.629,334.655z"/>
	<path fill="#FFFFFF" d="M610.462,334.056c32.975-48.817,65.95-97.634,99.433-147.205c0.95,5.445,0.436,9.392-2.307,13.259
		c-17.339,24.441-34.503,49.007-51.786,73.488c-13.547,19.189-27.177,38.319-40.789,57.461c-0.983,1.383-2.117,2.658-3.181,3.983
		C611.375,334.713,610.919,334.385,610.462,334.056z"/>
	<path fill="#FFFFFF" d="M642.143,709.983c-4.79-6.637-9.597-13.261-14.365-19.914c-3.871-5.401-7.302-11.175-11.636-16.17
		c-5.633-6.492-6.639-13.71-5.22-22.165c0.836,0.579,1.687,0.922,2.182,1.547c9.357,11.815,18.999,23.426,27.858,35.606
		c4.438,6.102,3.242,13.581,2.465,20.603C642.999,709.654,642.571,709.818,642.143,709.983z"/>
	<path fill="#FFFFFF" d="M631.237,614.338c-7.904,0-14.648,0.006-21.393-0.002c-5.177-0.006-10.445-0.652-15.511,0.088
		c-10.406,1.52-14.499-5.419-19.505-13.592c4.472,0,8.105-0.001,11.739,0c4.853,0.002,9.821,0.68,14.538-0.122
		C613.756,598.559,622.076,605.579,631.237,614.338z"/>
	<path fill="#FFFFFF" d="M349.767,593.328c-10.828,7.237-20.589,13.799-30.413,20.266c-0.881,0.58-2.163,0.762-3.261,0.77
		c-8.396,0.061-16.793,0.034-25.645-0.992c1.517-0.934,2.988-1.956,4.56-2.788c10.15-5.374,20.207-10.947,30.554-15.914
		c3.345-1.606,7.447-1.982,11.244-2.198C340.634,592.254,344.512,592.935,349.767,593.328z"/>
	<path fill="#FFFFFF" d="M561.81,583.236c10.006,0,19.676-0.133,29.336,0.125c1.702,0.045,3.504,1.54,5.013,2.688
		c4.441,3.38,8.757,6.922,13.122,10.401c-0.153,0.452-0.306,0.903-0.459,1.355c-4.941,0-9.881,0.002-14.822-0.001
		c-3.082-0.002-6.25-0.479-9.232,0.065C573.186,599.98,566.48,594.202,561.81,583.236z"/>
	<path fill="#FFFFFF" d="M265.378,595.597c13.17-5.286,26.129-11.229,39.609-15.548c5.766-1.847,12.616-0.309,20.342-0.309
		c-12.652,6.034-24.052,11.69-35.676,16.837c-2.421,1.072-5.676,0.293-8.547,0.307c-5.157,0.026-10.315,0.007-15.472,0.007
		C265.547,596.461,265.463,596.029,265.378,595.597z"/>
	<path fill="#FFFFFF" d="M352.345,594.962c1.46,5.442,1.772,9.839-2.226,12.917c-9.739,7.496-19.693,14.712-29.648,22.106
		c-2.942-7.547-1.458-12.669,4.629-16.761C333.946,607.276,342.808,601.352,352.345,594.962z"/>
	<path fill="#FFFFFF" d="M453.24,538.234"/>
	<path fill="#FFFFFF" d="M604.729,411.557c0-7.38,0.008-14.759-0.003-22.139c-0.008-5.167-0.155-10.337-0.04-15.501
		c0.215-9.718,0.472-19.437,0.998-29.141c0.067-1.231,1.851-2.369,2.84-3.55c0.808,1.333,2.32,2.667,2.316,3.998
		c-0.035,12.947-0.364,25.892-0.524,38.839c-0.092,7.437,0.141,14.883-0.149,22.31c-0.078,1.984-1.542,3.915-2.369,5.87
		C606.774,412.014,605.751,411.786,604.729,411.557z"/>
	<path fill="#FFFFFF" d="M290.345,609.011c-2.043-6.847-1.596-8.117,4.049-10.767c11.214-5.264,22.476-10.426,34.071-15.794
		c0.988,4.027,0.792,7.101-2.893,9.019c-10.878,5.664-21.762,11.317-32.663,16.937C292.239,608.753,291.401,608.773,290.345,609.011
		z"/>
	<path fill="#FFFFFF" d="M398.955,593.612c-5.151,7.014-9.629,13.606-19.836,12.033c-5.92-0.912-12.096-0.166-18.308-0.166
		C371.034,592.976,384.105,591.217,398.955,593.612z"/>
	<path fill="#FFFFFF" d="M387.518,610.576c1.327,5.226,0.125,8.976-3.139,12.559c-7.145,7.842-13.958,15.987-22.027,23.884
		c0-3.391-0.24-6.811,0.165-10.152c0.104-0.86,2.247-2.097,3.44-2.082c3.296,0.041,4.797-1.083,4.773-4.507
		c-0.011-1.521,0.344-3.487,1.316-4.498C376.951,620.682,382.115,615.833,387.518,610.576z"/>
	<path fill="#FFFFFF" d="M550.605,492.101c-0.215,1.96-0.573,3.916-1.151,5.867c-0.677,2.289-2.164,3.665-3.903,4.286
		c-0.159,2.175-0.289,4.351-0.34,6.527c0.003,0.504,0.01,1.008,0.01,1.512c-0.012,0-0.024,0-0.036,0
		c-0.008,1.179-0.004,2.357,0.043,3.537c0.057,1.419,0.076,2.814,0.08,4.204c2.281,0.171,4.472,1.357,5.495,3.556
		c0.121-9.633,0.078-19.27-0.108-28.902C550.691,492.492,550.658,492.296,550.605,492.101z"/>
	<path fill="#FFFFFF" d="M602.086,639.476c0.154,0.35,0.191,0.708,0.137,1.053c0.369,0.439,0.728,0.885,1.046,1.366
		c1.492,2.254-2.128,4.344-3.608,2.109c-0.602-0.91-1.357-1.727-2.152-2.518c-0.355,1.379-2.182,2.398-3.514,1.086
		c-0.211-0.208-0.392-0.426-0.585-0.64c4.517,6.316,9.166,12.598,14.053,19.259C609.153,652.278,607.724,645.205,602.086,639.476z"
		/>
	<path fill="#FFFFFF" d="M592.179,628.468c0.357,0.147,0.682,0.42,0.935,0.837c-0.053-0.749-2.21-1.959-3.322-1.884
		c-0.973,0.066-2.5,1.585-2.593,2.575c-0.089,0.946,0.387,2.15,1.05,3.057c-0.099-0.271-0.211-0.536-0.285-0.82
		c-0.299-1.141,0.308-1.981,1.138-2.362C589.412,628.526,590.962,627.534,592.179,628.468z"/>
	<path fill="#FFFFFF" d="M336.545,589.179c10.851-5.688,20.679-14.659,34.467-10.975
		C364.567,587.089,353.124,590.933,336.545,589.179z"/>
	<path fill="#FFFFFF" d="M254.927,329.222c1.798,0.334,4.012,0.106,5.332,1.085c20.827,15.443,41.539,31.04,62.269,46.614
		c0.367,0.276,0.627,0.693,0.633,1.815c-1.301-0.563-2.764-0.904-3.88-1.72c-20.795-15.212-41.551-30.476-62.298-45.753
		c-0.769-0.566-1.361-1.373-2.035-2.068C254.948,329.194,254.927,329.222,254.927,329.222z"/>
	<path fill="#FFFFFF" d="M553.476,572.788c8.187,0,16.433-0.572,24.531,0.272c3.403,0.354,6.495,3.702,9.728,5.689
		c-0.135,0.456-0.271,0.913-0.406,1.369c-9.259,0-18.546,0.389-27.758-0.268c-2.363-0.169-4.49-3.642-6.725-5.597
		C553.056,573.765,553.266,573.276,553.476,572.788z"/>
	<path fill="#FFFFFF" d="M450.188,542.3c0.005-0.287,0.011-0.574,0.016-0.861"/>
	<path fill="#FFFFFF" d="M357.18,602.537c-1.857-7.02-1.092-11.665,5.299-14.434c3.478-1.507,6.474-4.124,9.675-6.233
		c3.33,4.935,3.079,7.304-1.025,10.4C366.679,595.627,362.153,598.884,357.18,602.537z"/>
	<path fill="#FFFFFF" d="M347.67,568.555c-7.822,6.393-16.909,8.533-33.5,7.485C325.718,571.409,335.622,565.432,347.67,568.555z"/>
	<path fill="#FFFFFF" d="M353.473,572.583c-0.95,1.743-1.463,4.183-2.929,5.105c-5.567,3.498-11.443,6.504-17.578,9.902
		c-1.518-3.926-1.462-6.636,2.342-8.372c5.552-2.534,11.063-5.158,16.591-7.744C352.424,571.843,352.949,572.213,353.473,572.583z"
		/>
	<path fill="#FFFFFF" d="M728.869,347.786c-2.429-8.389-4.858-16.777-7.294-25.19c7.338-1.849,8.2-1.242,8.24,5.292
		c0.041,6.571,0.009,13.143,0.009,19.715C729.506,347.664,729.187,347.725,728.869,347.786z"/>
	<path fill="#FFFFFF" d="M390.923,614.412c-2.66-10.131,5.856-12.985,10.32-18.836C403.38,601.322,400.602,606.19,390.923,614.412z"
		/>
	<path fill="#FFFFFF" d="M573.644,568.595c-8.477-0.146-17.182,2.935-25.246-1.689C556.914,566.366,565.52,564.3,573.644,568.595z"
		/>
	<path fill="#FFFFFF" d="M559.626,586.482c4.435,6.516,11.349,10.689,9.385,19.388C562.985,601.913,557.896,592.276,559.626,586.482
		z"/>
	<path fill="#FFFFFF" d="M559.018,557.045c-6.83-0.116-13.945,2.481-20.282-2.029C545.617,554.542,552.746,551.133,559.018,557.045z
		"/>
	<path fill="#FFFFFF" d="M742.32,699.495c-2.645-2.088-5.184-4.092-7.927-6.257C742.739,691.218,744.996,693.691,742.32,699.495z"/>
	<path fill="#FFFFFF" d="M564.637,562.409c-6.572,0-13.143,0-19.715,0c0.003-0.289,0.006-0.577,0.009-0.866
		c6.572,0,13.143,0,19.715,0C564.643,561.832,564.64,562.12,564.637,562.409z"/>
	<path fill="#FFFFFF" d="M553.537,587.106c-1.276-3.588-2.553-7.175-3.829-10.763c0.755-0.288,1.509-0.576,2.264-0.865
		c1.45,3.518,2.901,7.036,4.351,10.555C555.394,586.391,554.466,586.749,553.537,587.106z"/>
	<path fill="#FFFFFF" d="M546.369,569.35c0.537,2.103,1.074,4.205,1.61,6.308c-0.588,0.18-1.177,0.359-1.765,0.539
		c-0.668-2.066-1.336-4.132-2.003-6.198C544.93,569.782,545.649,569.566,546.369,569.35z"/>
	<path fill="#FFFFFF" d="M493.027,577.569c0,3.731,0.12,7.469-0.102,11.187c-0.044,0.738-1.302,1.731-2.179,1.981
		c-0.634,0.181-1.878-0.466-2.299-1.106c-1.091-1.656,1.073-10.693,2.722-12.165C491.788,577.5,492.407,577.534,493.027,577.569z"/>
	<path fill="#FFFFFF" d="M571.227,523.114c3.804,3.153,8.19,5.779,12.627,7.939c0.368,0.179,0.804,0.387,1.279,0.608
		c-3.966-14.657-6.757-28.86-7.414-43.576c-0.243,0.383-0.53,0.758-0.869,1.12c-2.992,3.198-5.433,6.832-8.126,10.277
		c-0.679,4.653-1.229,9.348-1.174,14.037C567.615,519.054,567.392,519.937,571.227,523.114z M574.779,499.184
		c0.28,0.004,0.559,0.009,0.839,0.013v22.949c-0.28-0.004-0.559-0.008-0.839-0.013V499.184z"/>
	<path d="M497.698,628.282c0.789,8.405,0.789,8.405-7.523,8.496c-9.692,0.106-9.75,0.103-9.194-9.626
		c0.357-6.25,1.028-12.483,1.337-18.735c0.156-3.153,1.333-4.457,4.554-3.899c1.457,0.253,2.993,0.059,4.493,0.055
		c6.322-0.018,6.326-0.02,6.332,6.552C497.702,616.844,497.698,622.563,497.698,628.282z M495.813,620.62c-0.068,0-0.136,0-0.204,0
		c0-3.264-0.109-6.533,0.03-9.791c0.142-3.333-1.828-3.932-4.44-3.646c-2.601,0.285-6.401-1.711-6.623,3.426
		c-0.223,5.157-0.741,10.302-0.963,15.459c-0.38,8.826-0.27,8.812,8.649,8.175c2.624-0.187,3.618-1.331,3.568-3.83
		C495.764,627.15,495.813,623.884,495.813,620.62z"/>
	<path fill="#FFFFFF" stroke="#000000" stroke-width="2" stroke-miterlimit="10" d="M974,863.739
		c0,10.373-8.258,12.484-18.368,5.007l-131.933-97.673c-5.121-3.788-9.105-12.491-9.113-19.54l-0.334-336.895
		c-0.008-7.082,4.049-14.17,9.178-15.876l132.129-44.029c10.145-3.374,18.441,2.252,18.441,12.697V863.739z"/>
	<polygon fill="#FFFFFF" stroke="#000000" stroke-width="3" stroke-miterlimit="10" points="101.498,432.17 212.014,437.395 
		212.756,395.403 102.263,369.105 	"/>
	<g>
		<path d="M149.111,423.925l-5.387-0.514l-4.082-11.204l-6.519,10.193l-6-0.572l10.274-15.849l-6.713-18.326l6.085,1.258
			l4.098,11.739l6.199-9.611l5.464,1.129l-9.412,14.673L149.111,423.925z"/>
		<path d="M153.354,392.34l5.453,1.127l3.266,13.42l6.181-11.468l4.907,1.014l-9.484,17.008l-1.466,11.733l-4.746-0.452
			l1.446-11.939L153.354,392.34z"/>
		<path d="M175.341,396.884l14.248,2.945l-0.66,4.589l-12.164,17.182l9.723,1.11l-0.678,4.714l-14.657-1.397l0.619-4.683
			l12.206-17.542l-9.322-1.741L175.341,396.884z"/>
	</g>
	<path fill="#FFFFFF" stroke="#000000" stroke-width="2" stroke-miterlimit="10" d="M758.622,701.673
		c0.109,5.966-5.835,6.302-12.351,1.083l-81.641-65.234c-3.024-2.422-5.596-7.478-5.69-11.347l-4.602-186.687
		c-0.096-3.961,2.14-7.929,5.12-8.888l81.154-25.968c6.499-2.091,12.603,1.147,12.716,7.335L758.622,701.673z"/>
	<rect x="327.5" y="449.5" fill="#FFFFFF" stroke="#000000" stroke-width="3" stroke-miterlimit="10" width="58" height="36"/>
	<text transform="matrix(1 0 0 1 339.603 474.3018)" font-family="'Menlo-Bold'" font-size="20.5466">XYZ</text>
	<path fill="none" stroke="#000000" stroke-width="3" stroke-miterlimit="10" d="M414.619,410.575
		c-2.854,56.801,0.571,115.016,0,172.09"/>
	<line fill="none" stroke="#000000" stroke-width="3" stroke-miterlimit="10" x1="452.5" y1="437" x2="452.5" y2="551"/>
	
		<line fill="none" stroke="#000000" stroke-width="3" stroke-miterlimit="10" x1="453.429" y1="550.704" x2="215.052" y2="842.922"/>
	<circle cx="237.977" cy="507.044" r="6.565"/>
	<circle cx="209.441" cy="512.751" r="6.565"/>
	<circle cx="430.745" cy="504.619" r="4.001"/>
	<circle cx="667.83" cy="533.956" r="4.852"/>
	<circle cx="839.119" cy="557.86" r="8.093"/>
	<line fill="none" stroke="#000000" stroke-width="3" stroke-miterlimit="10" x1="781.5" y1="279" x2="781.5" y2="735"/>
	<polygon fill="#FFFFFF" stroke="#000000" stroke-width="3" stroke-miterlimit="10" points="950.15,463.303 831.083,468.932 
		830.284,423.691 949.326,395.359 	"/>
	<g>
		<path d="M876.71,454.181l-4.385,0.412l-4.055-9.124l-3.683,9.851l-3.928,0.369l5.505-14.999l-5.782-12.946l3.981-0.91l3.789,8.466
			l3.718-10.182l4.439-1.014l-5.97,15.911L876.71,454.181z"/>
		<path d="M877.008,423.943l4.854-1.109l4.645,11.714l4.788-13.869l5.499-1.257l-7.867,21.203l0.016,12.408l-4.716,0.443
			l-0.045-12.156L877.008,423.943z"/>
		<path d="M899.386,418.828l19.707-4.504l-0.08,5.958l-13.933,25.393l13.904-1.628l-0.084,6.171l-20.031,1.881l0.019-5.349
			l12.749-24.57l-12.274,2.514L899.386,418.828z"/>
	</g>
	<polygon fill="#FFFFFF" stroke="#000000" stroke-width="2" stroke-miterlimit="10" points="743.646,485.728 665.296,489.432 
		664.77,459.662 743.104,441.018 	"/>
	<g>
		<path d="M695.32,479.725l-2.886,0.271l-2.669-6.004l-2.424,6.482l-2.585,0.243l3.623-9.87l-3.805-8.519l2.62-0.599l2.493,5.571
			l2.447-6.7l2.921-0.668l-3.929,10.47L695.32,479.725z"/>
		<path d="M695.516,459.827l3.194-0.73l3.057,7.708l3.15-9.127l3.619-0.827l-5.176,13.953l0.011,8.165l-3.103,0.291l-0.029-7.999
			L695.516,459.827z"/>
		<path d="M710.242,456.462l12.968-2.964l-0.053,3.921l-9.168,16.709l9.149-1.071l-0.055,4.061l-13.181,1.238l0.013-3.52
			l8.389-16.168l-8.076,1.654L710.242,456.462z"/>
	</g>
</g>
</svg>
